<?xml version="1.0" standalone="no"?>
<!DOCTYPE svg PUBLIC "-//W3C//DTD SVG 20010904//EN"
 "http://www.w3.org/TR/2001/REC-SVG-20010904/DTD/svg10.dtd">
<svg version="1.0" xmlns="http://www.w3.org/2000/svg"
 width="467.000000pt" height="467.000000pt" viewBox="0 0 467.000000 467.000000"
 preserveAspectRatio="xMidYMid meet">
<metadata>
Created by potrace 1.14, written by Peter Selinger 2001-2017
</metadata>
<g transform="translate(0.000000,467.000000) scale(0.100000,-0.100000)"
fill="#000000" stroke="none">
<path d="M0 3965 c0 -500 4 -704 11 -699 8 4 8 0 0 -14 -8 -15 -11 -481 -11
-1636 l0 -1616 2335 0 2335 0 0 988 c0 777 -3 991 -12 1001 -10 11 -10 13 0 7
9 -6 12 33 12 178 0 102 -3 186 -7 186 -4 0 -23 -15 -43 -32 -26 -25 -25 -22
8 12 l42 46 0 252 0 252 -82 65 c-172 137 -397 275 -429 263 -4 -2 -1 -21 6
-43 7 -22 16 -56 19 -75 6 -34 9 -37 59 -47 29 -6 75 -22 102 -34 59 -28 129
-94 121 -115 -3 -8 -2 -13 3 -10 20 13 73 -105 95 -210 8 -35 10 -61 5 -58 -5
3 -9 15 -10 27 0 12 -7 40 -14 62 l-14 40 4 -50 5 -50 -15 50 c-8 28 -13 61
-10 73 4 14 2 21 -4 18 -12 -8 -25 30 -15 46 4 7 4 10 -1 6 -4 -4 -30 23 -57
61 -52 74 -91 100 -190 127 -55 14 -72 7 -60 -25 3 -9 2 -13 -2 -9 -4 3 -8 12
-9 20 -2 7 -6 14 -11 15 -5 1 -13 7 -17 15 -6 9 -9 3 -9 -17 -1 -28 -2 -29
-10 -7 -11 27 -18 28 -37 5 -8 -10 -12 -12 -8 -5 4 7 0 12 -9 12 -8 0 -17 -8
-19 -17 -4 -17 -5 -17 -6 0 0 9 -5 17 -10 17 -15 0 -154 -30 -158 -34 -2 -2
24 -25 58 -50 42 -32 65 -43 69 -35 5 7 10 8 14 1 3 -6 0 -17 -9 -25 -18 -18
-3 -32 35 -32 14 0 30 -5 35 -12 6 -6 24 -13 40 -15 33 -3 33 -6 22 102 -3 30
-1 64 3 75 5 11 9 15 9 8 1 -6 4 -20 7 -30 5 -15 4 -16 -5 -3 -9 12 -11 8 -7
-20 3 -19 8 -56 11 -82 3 -26 9 -47 13 -47 4 1 16 1 27 0 17 -2 16 -4 -7 -17
-16 -8 -28 -21 -28 -29 0 -8 -4 -15 -10 -15 -5 0 -10 9 -10 19 0 12 -9 21 -24
25 -13 3 -31 9 -39 12 -14 5 -14 0 -1 -43 35 -114 54 -196 55 -235 l2 -43 7
35 c16 75 10 -126 -7 -220 -9 -52 -17 -111 -18 -130 -1 -19 -7 -46 -14 -58 -7
-13 -10 -26 -7 -29 3 -3 19 23 36 58 16 35 27 53 24 39 -9 -36 -104 -223 -110
-217 -3 3 6 27 20 53 17 33 22 51 16 60 -6 6 -8 20 -5 30 4 11 -3 3 -14 -16
-28 -48 -26 -33 9 69 35 104 41 211 22 369 -12 104 -34 164 -48 129 -7 -20 12
-205 25 -240 10 -27 4 -67 -10 -67 -9 0 -13 28 -10 60 2 12 0 12 -7 2 -5 -8
-8 -25 -6 -40 1 -15 -2 -32 -7 -38 -7 -8 -6 -15 2 -20 8 -4 9 -3 5 4 -4 7 -2
12 3 12 18 0 13 -34 -20 -127 -17 -48 -32 -98 -32 -110 -1 -13 -4 -23 -8 -23
-10 0 -18 -39 -9 -45 9 -5 30 17 34 37 2 7 12 33 23 58 12 25 23 52 26 60 5
13 5 13 6 0 0 -17 -33 -117 -43 -127 -11 -12 -6 -21 10 -19 9 1 22 13 29 26 7
12 15 19 17 14 8 -12 -27 -75 -36 -67 -4 4 -4 -1 0 -11 5 -14 4 -17 -4 -12 -9
6 -9 1 0 -18 13 -31 18 -32 49 -7 34 26 95 55 159 76 30 10 61 22 68 28 9 7
11 6 7 -4 -3 -8 -34 -23 -68 -33 -68 -20 -126 -47 -169 -79 -15 -11 -31 -18
-34 -14 -4 4 -14 -2 -21 -13 -8 -11 -18 -18 -23 -15 -4 3 -7 -1 -6 -9 2 -20
-118 -153 -196 -216 -37 -30 -70 -63 -74 -74 -4 -12 -9 -15 -13 -7 -6 9 -52
-14 -110 -55 -6 -5 27 -34 38 -34 5 0 53 20 105 44 101 47 131 54 46 11 -37
-19 -48 -29 -44 -43 5 -15 5 -16 -5 0 -10 15 -14 15 -51 -3 -21 -10 -44 -19
-50 -19 -7 0 -9 -9 -5 -22 6 -21 5 -22 -8 -5 -11 13 -22 15 -46 11 -34 -7 -34
-11 -5 -82 12 -29 17 -32 41 -26 55 12 55 11 38 44 -8 16 -13 30 -11 30 3 0
12 -13 21 -30 16 -31 41 -37 93 -24 17 5 21 12 17 28 -5 20 -4 20 6 -1 12 -23
15 -23 208 -24 117 0 224 -6 266 -13 67 -13 63 -13 -92 -8 -141 4 -163 3 -163
-10 0 -13 -6 -13 -52 -2 -64 17 -239 18 -307 2 l-51 -11 -2 -71 -2 -71 -3 69
-4 68 -37 -6 c-20 -3 -45 -6 -54 -6 -11 0 -18 -8 -18 -18 0 -27 30 -136 40
-146 13 -13 95 39 126 79 14 19 32 54 39 77 8 24 14 34 14 22 1 -11 -10 -43
-24 -70 -22 -44 -45 -67 -119 -118 -19 -13 -18 -14 6 -57 13 -24 30 -43 36
-42 6 2 9 -4 5 -13 -7 -20 16 -38 103 -79 201 -96 433 -48 490 102 l15 38 -6
-35 c-8 -50 -53 -100 -120 -135 -56 -28 -65 -30 -179 -30 -113 0 -126 2 -194
32 -101 44 -168 89 -211 142 -31 40 -41 46 -71 45 l-35 -2 33 5 c27 3 32 8 27
21 -9 22 -20 57 -34 109 l-12 43 -39 -20 c-22 -11 -43 -20 -47 -20 -4 1 14 12
40 26 50 26 58 50 17 48 -21 -1 -21 0 -6 12 16 11 16 13 -6 16 -28 4 -124 -38
-120 -53 1 -6 -2 -8 -7 -5 -14 9 -61 -15 -54 -27 3 -6 2 -7 -4 -4 -13 8 -55
-31 -47 -45 4 -6 -1 -6 -15 1 -18 10 -20 9 -14 -6 10 -28 50 -65 58 -54 3 6
16 16 28 22 22 12 22 12 -1 -13 l-23 -25 31 -13 c17 -7 29 -15 26 -17 -3 -3
-19 2 -37 11 -36 18 -35 19 -69 -46 -26 -49 -25 -68 6 -114 15 -21 19 -32 10
-24 -52 42 -55 105 -11 172 l25 37 -29 20 -29 21 -63 -48 c-141 -105 -174
-165 -136 -244 54 -112 239 -247 454 -332 142 -56 369 -99 348 -66 -7 11 35
31 49 22 5 -3 1 -11 -9 -19 -17 -12 -16 -13 16 -13 19 0 97 11 173 25 77 14
145 25 150 24 23 -2 -56 -19 -202 -44 -139 -24 -162 -25 -245 -15 -51 6 -126
20 -167 31 -103 29 -270 105 -359 164 -94 62 -197 166 -226 228 l-22 47 -18
-27 c-10 -16 -65 -90 -122 -167 -99 -133 -103 -140 -103 -190 0 -35 -3 -46 -9
-36 -6 8 -7 18 -5 22 3 4 0 8 -5 8 -6 0 -11 -6 -11 -12 0 -10 -3 -9 -9 1 -7
11 -11 9 -20 -8 -7 -12 -9 -26 -6 -31 3 -5 0 -7 -8 -4 -9 3 -24 -16 -45 -58
-37 -73 -41 -71 -11 4 11 29 16 49 11 43 -13 -12 -48 -116 -57 -168 -9 -47
-19 -39 -45 38 l-20 60 5 -52 c2 -29 2 -53 0 -53 -5 0 -27 77 -29 100 -2 29
-49 147 -65 166 -9 11 -15 17 -13 15 4 -8 -61 -32 -67 -25 -3 3 2 12 12 19 12
9 14 14 6 17 -9 3 -10 12 -2 35 7 18 7 36 2 44 -6 10 -9 8 -10 -11 -1 -21 -2
-22 -6 -5 -3 11 -9 24 -14 30 -13 14 -11 27 4 19 8 -5 7 -2 -2 10 -11 13 -16
14 -23 4 -5 -9 -7 -5 -6 12 2 13 -2 25 -9 25 -6 0 -15 4 -20 9 -5 6 -2 6 6 1
11 -6 13 -4 8 8 -3 9 -1 17 5 19 16 6 -48 93 -95 130 -23 18 -45 37 -48 42 -4
4 -12 6 -18 2 -7 -5 -9 -1 -4 11 5 16 4 16 -14 -2 -13 -13 -16 -22 -10 -27 17
-10 -81 -94 -149 -128 -34 -16 -83 -32 -110 -35 l-49 -4 45 9 c52 11 192 79
185 90 -2 4 7 13 20 20 23 12 30 23 23 34 -2 2 5 13 15 24 28 30 4 64 -88 127
-22 16 -31 25 -20 21 59 -21 -101 80 -225 141 -93 46 -106 51 -112 35 -6 -16
-7 -16 -7 0 -1 10 -15 25 -31 33 -28 15 -31 14 -36 -2 -34 -99 -86 -173 -146
-207 -38 -22 -30 -13 29 33 43 33 103 135 103 176 0 18 -32 38 -191 119 -187
96 -193 98 -245 93 -52 -5 -74 5 -35 18 35 11 31 32 -12 61 -61 40 -327 288
-327 305 0 5 -5 7 -10 4 -6 -4 -10 -3 -9 2 3 19 -2 34 -10 29 -5 -3 -8 2 -7
12 0 9 -3 16 -9 15 -6 -1 -10 9 -10 22 0 18 3 21 12 13 7 -6 13 -14 13 -19 0
-14 72 -111 100 -136 37 -32 48 -11 18 34 -44 66 -119 231 -100 219 8 -5 25
-38 68 -131 39 -84 77 -142 127 -195 24 -25 46 -53 50 -62 9 -24 108 -100 123
-94 8 3 18 -3 23 -12 7 -12 10 -13 11 -3 0 11 3 11 15 1 8 -7 26 -10 39 -8 18
4 26 0 30 -15 3 -12 9 -16 17 -11 7 4 10 3 5 -4 -8 -13 10 -26 25 -17 6 4 -2
18 -22 34 -17 14 -34 24 -37 23 -2 -2 -8 0 -11 5 -3 4 -49 40 -101 80 -112 85
-164 138 -210 213 -36 57 -83 121 -113 152 -9 10 -17 27 -17 37 0 11 -4 22 -8
25 -5 3 -15 37 -22 77 -11 56 -11 88 -2 148 12 86 66 260 89 288 8 10 12 12 8
6 -3 -7 -4 -13 -1 -13 7 0 36 56 36 67 -1 4 -7 -3 -15 -17 -16 -29 -20 -19 -4
11 8 15 14 18 24 9 9 -8 14 -6 19 6 3 9 3 21 -1 26 -3 6 -1 8 4 5 6 -4 17 1
24 10 11 12 11 17 2 20 -7 2 -9 11 -6 19 8 20 23 17 17 -3 -6 -18 40 28 102
103 34 40 44 61 24 49 -6 -3 -13 1 -16 9 -3 9 -14 16 -23 16 -11 0 -12 -3 -4
-8 9 -6 7 -11 -6 -19 -10 -6 -24 -8 -31 -3 -7 4 -20 6 -28 2 -13 -5 -13 -6 1
-11 16 -6 16 -8 2 -26 -9 -11 -14 -14 -10 -7 9 17 -10 15 -25 -3 -7 -8 -18
-15 -24 -15 -6 1 0 10 14 22 14 11 24 24 23 29 -2 5 6 13 17 19 11 6 20 8 20
5 0 -4 14 4 32 16 17 13 39 24 47 24 28 2 76 31 73 44 -1 7 2 10 7 7 22 -14
208 165 194 187 -3 6 -2 7 4 4 6 -4 21 5 34 19 13 14 37 33 53 41 26 13 27 17
13 25 -18 10 -41 2 -32 -12 3 -4 -3 -14 -13 -21 -15 -13 -16 -12 -3 4 7 9 10
17 6 17 -4 0 -2 6 4 13 6 8 7 17 3 22 -4 4 5 5 20 1 30 -7 45 6 25 22 -8 7
-22 4 -45 -8 -21 -12 -28 -20 -20 -24 9 -4 9 -5 -2 -5 -31 2 -40 -1 -40 -17 0
-8 -4 -13 -8 -10 -4 2 -14 1 -22 -5 -12 -7 -11 -9 5 -10 11 -1 -2 -5 -30 -9
-36 -5 -54 -4 -66 6 -8 8 -22 14 -30 14 -22 -1 -52 -27 -44 -40 5 -8 11 -8 21
1 8 6 14 8 14 5 0 -4 9 -2 20 4 14 7 20 7 20 0 0 -5 -7 -11 -15 -11 -23 -2
-28 -4 -55 -18 -14 -8 -22 -10 -17 -6 4 5 0 16 -8 25 -14 15 -14 18 0 30 8 7
15 10 15 6 0 -4 11 1 25 10 17 11 29 13 38 6 6 -5 30 -12 52 -15 37 -5 38 -5
13 6 -16 6 -28 15 -28 20 0 5 8 6 18 2 35 -14 62 -16 60 -3 -2 6 11 19 27 27
l30 15 -30 7 c-26 6 -25 6 7 4 21 -2 41 1 44 6 3 5 15 9 27 9 18 1 19 2 6 10
-10 6 -41 5 -83 -1 -37 -6 -70 -8 -73 -5 -4 3 6 6 20 6 15 0 27 5 27 10 0 6
-4 10 -8 10 -5 0 -17 7 -28 16 -10 8 -14 13 -8 10 6 -3 31 9 55 27 24 17 60
42 79 54 19 12 30 23 24 23 -15 0 -64 -24 -64 -32 0 -5 -8 -8 -17 -8 -19 -1
-56 -24 -48 -31 2 -3 -5 -6 -17 -6 -12 -1 -24 -6 -27 -11 -3 -5 -16 -12 -28
-16 -13 -4 -23 -11 -23 -16 0 -14 32 -21 46 -9 7 6 18 8 24 4 8 -5 3 -13 -12
-23 -13 -9 -25 -16 -28 -16 -3 1 -16 -7 -29 -17 -17 -14 -28 -16 -42 -8 -23
12 -25 21 -4 13 8 -4 17 1 21 9 3 9 12 13 21 10 10 -4 14 -2 10 4 -4 6 -18 11
-32 11 -13 0 -22 -4 -19 -9 3 -5 -2 -6 -10 -3 -8 3 -25 -1 -38 -10 -33 -24
-134 -21 -205 5 -39 15 -58 18 -61 11 -2 -7 -14 -32 -26 -56 l-23 -44 24 -13
c30 -16 23 -22 -11 -9 -22 8 -33 5 -67 -17 -22 -14 -61 -32 -87 -39 -26 -7
-39 -13 -29 -13 9 -1 17 -5 17 -11 0 -6 -10 -5 -25 2 -16 7 -21 14 -14 19 8 5
7 8 -2 12 -8 4 -2 4 12 1 27 -6 129 31 129 46 0 4 -14 13 -30 20 -41 17 -33
22 13 8 34 -10 39 -9 62 12 15 14 34 52 46 92 20 70 33 91 23 38 -8 -39 4 -38
44 3 l32 33 -24 23 c-23 22 -25 22 -35 4 -6 -10 -11 -13 -11 -6 0 6 5 15 11
19 6 3 7 9 2 13 -9 7 -52 73 -72 112 -12 24 -17 26 -47 19 -18 -4 -50 -17 -69
-29 -20 -12 -33 -16 -29 -10 9 15 104 59 127 59 10 0 15 5 12 10 -3 6 -1 10 4
10 6 0 11 -12 11 -27 1 -32 66 -127 80 -118 5 3 7 0 4 -8 -3 -9 7 -24 23 -37
24 -19 28 -20 31 -6 2 9 8 16 14 16 6 0 17 8 24 17 7 10 16 15 20 11 9 -10
-14 -38 -31 -38 -16 0 -27 -27 -14 -36 13 -7 39 14 39 32 0 8 5 14 10 14 6 0
5 -14 -4 -34 -14 -33 -13 -34 11 -39 17 -3 21 -1 14 6 -14 14 -14 27 0 27 5 0
7 -5 3 -11 -4 -7 -1 -10 7 -7 8 3 22 -1 32 -10 14 -12 22 -13 43 -4 15 7 23 8
19 2 -4 -6 5 -10 19 -10 14 0 27 4 31 10 3 5 12 7 20 4 8 -3 20 4 27 15 7 12
22 21 33 22 20 0 20 0 0 9 -17 7 -17 9 -2 9 9 1 17 6 17 12 0 5 5 7 10 4 6 -4
8 -11 5 -16 -12 -18 12 -8 51 21 21 16 47 30 57 30 10 0 16 4 13 9 -4 5 6 13
21 18 22 8 24 11 10 16 -10 4 -17 2 -17 -5 0 -7 -5 -6 -15 2 -22 18 -18 28 9
26 13 0 22 -4 20 -7 -2 -4 3 -9 11 -12 8 -4 12 -15 10 -26 -2 -11 1 -24 7 -27
7 -4 8 -2 4 5 -4 6 0 14 11 18 25 9 34 25 21 40 -7 9 -6 14 5 19 8 3 14 11 13
17 -9 42 -19 66 -26 62 -5 -3 -12 0 -16 6 -5 9 1 10 19 5 16 -4 27 -2 29 6 3
8 13 3 30 -13 14 -14 30 -23 36 -21 7 2 12 0 12 -5 0 -12 38 -14 45 -2 3 5 -1
6 -10 3 -10 -4 -15 -2 -13 7 2 7 -3 13 -10 14 -8 0 -19 7 -25 16 -7 9 -50 42
-96 73 -79 54 -116 66 -116 38 0 -19 -8 -18 -32 3 -29 24 -30 39 -2 25 11 -6
25 -9 32 -7 7 3 4 8 -8 12 -11 4 -30 12 -42 18 -13 6 -26 7 -30 4 -3 -4 1 -7
11 -7 10 0 14 -5 10 -11 -3 -6 3 -24 15 -40 11 -15 21 -34 21 -42 0 -7 6 -19
13 -26 9 -11 9 -13 0 -7 -7 4 -13 3 -13 -2 0 -5 -7 -9 -15 -9 -8 0 -12 4 -9 9
3 4 -5 22 -17 40 -13 17 -16 28 -8 23 8 -5 5 1 -5 13 -21 24 -30 29 -21 10 4
-7 0 -4 -9 7 -8 11 -20 25 -26 30 -6 6 -18 18 -27 27 -11 12 -26 16 -42 12
-21 -5 -23 -3 -11 6 13 10 13 11 -2 6 -9 -3 -31 2 -49 11 -23 12 -44 14 -83 8
-28 -4 -67 -8 -86 -9 -50 -3 -80 -15 -74 -30 3 -7 -2 -16 -11 -20 -9 -3 -13
-11 -9 -17 4 -7 3 -9 -3 -6 -6 4 -31 -13 -56 -38 -24 -25 -48 -45 -53 -45 -4
0 1 9 13 19 11 11 30 35 42 55 13 20 27 34 32 30 5 -3 9 0 9 7 0 6 -8 9 -20 6
-31 -8 -24 0 25 28 120 71 273 71 426 1 30 -13 83 -36 118 -51 35 -14 74 -33
86 -41 12 -8 25 -11 28 -7 4 3 7 1 7 -5 0 -7 4 -12 9 -12 6 0 40 -22 76 -50
36 -27 72 -50 79 -50 7 0 36 -12 65 -26 30 -14 60 -23 67 -20 8 3 13 0 11 -6
-1 -6 4 -13 12 -16 9 -3 11 0 6 8 -6 10 -4 11 6 4 8 -5 19 -9 24 -9 6 -1 9 -7
7 -14 -1 -7 2 -10 8 -6 6 3 8 11 5 16 -4 5 0 9 7 9 20 0 -52 41 -81 47 -38 6
-39 13 -3 13 18 0 32 4 32 9 0 5 10 9 23 10 12 0 30 1 39 2 12 2 -23 41 -107
121 -102 98 -127 127 -136 161 -15 55 -5 128 23 180 22 39 98 107 120 107 6 0
-8 -12 -30 -28 -95 -64 -136 -175 -98 -267 15 -36 166 -194 222 -233 l31 -21
32 50 c36 58 35 56 19 62 -7 2 -5 3 4 2 10 -2 31 14 49 36 17 22 57 56 89 77
36 24 55 43 52 53 -4 11 -3 12 10 1 9 -7 22 -10 31 -6 18 7 47 63 47 92 0 12
4 23 8 26 7 4 8 -16 4 -66 -1 -10 -18 -36 -37 -57 -21 -23 -32 -42 -25 -46 5
-3 10 -12 10 -18 0 -7 -5 -4 -11 7 -10 17 -15 14 -61 -30 -75 -74 -77 -81 -26
-104 24 -11 37 -20 30 -20 -7 0 -31 9 -52 19 l-40 19 -21 -29 c-18 -25 -19
-32 -7 -47 12 -15 11 -16 -4 -4 -14 11 -17 10 -23 -7 -3 -12 -13 -28 -21 -36
-14 -13 -14 -15 1 -15 9 0 14 -4 11 -9 -6 -9 42 -36 60 -33 6 1 16 -10 23 -25
l12 -27 23 29 c17 21 25 25 31 15 5 -9 4 -11 -3 -6 -7 4 -12 4 -13 -1 0 -4 -2
-15 -4 -24 -2 -11 4 -14 25 -11 15 2 31 -1 35 -8 5 -9 1 -10 -14 -5 -11 3 -21
4 -21 0 0 -6 45 -25 68 -29 7 -1 12 -5 12 -9 0 -4 0 -9 0 -12 0 -3 -9 -1 -19
5 -13 7 -22 7 -26 0 -3 -5 -1 -10 5 -10 6 0 9 -4 6 -9 -7 -11 43 -77 55 -73 6
1 8 -1 5 -6 -2 -4 4 -13 14 -20 28 -17 43 6 25 41 -17 33 -13 34 15 5 11 -12
18 -28 16 -35 -3 -6 2 -26 10 -43 9 -17 16 -51 16 -75 0 -25 4 -47 8 -50 5 -3
6 -13 3 -22 -5 -11 -3 -14 6 -9 9 6 12 2 10 -10 -5 -26 40 -116 53 -108 6 4 8
-1 3 -15 -3 -11 -3 -21 2 -21 5 0 15 -21 22 -46 8 -25 17 -41 21 -35 12 20 40
0 40 -28 0 -32 15 -58 24 -43 3 6 4 42 2 81 -2 39 -1 69 3 66 4 -2 18 9 30 26
12 16 27 27 32 23 7 -4 6 -10 -1 -19 -8 -10 -8 -15 1 -20 6 -4 15 -1 20 6 13
21 12 -7 -1 -32 -8 -14 -7 -19 1 -19 8 0 10 -11 6 -33 -5 -34 15 -88 27 -69 3
6 15 9 25 7 13 -2 28 9 46 35 15 21 33 41 41 44 20 8 17 23 -6 29 -29 7 -25
21 15 51 28 22 34 32 29 52 -4 15 -2 24 6 24 6 0 8 -4 5 -10 -3 -5 0 -7 8 -4
9 3 12 14 9 30 -3 19 -1 23 12 18 9 -3 16 -11 16 -16 0 -11 104 82 106 95 1 4
2 13 3 20 1 7 5 6 11 -5 8 -13 -4 -31 -64 -91 -93 -93 -122 -144 -35 -61 96
91 138 114 220 121 38 3 69 10 69 16 0 5 6 5 13 -2 8 -6 17 -8 20 -5 4 4 -10
16 -30 26 -39 21 -84 19 -136 -9 -16 -8 -31 -12 -34 -10 -2 3 14 13 36 23 28
12 37 20 28 26 -7 5 0 6 16 2 16 -4 27 -2 27 4 0 7 10 6 26 -3 15 -7 32 -12
38 -11 6 2 7 1 3 -2 -4 -2 7 -12 25 -21 26 -13 35 -14 41 -4 12 19 38 16 30
-3 -5 -13 -7 -13 -14 -2 -7 10 -9 10 -9 0 0 -14 8 -18 61 -26 l37 -7 12 50 c6
28 8 56 4 63 -4 7 -4 10 1 6 4 -4 18 5 29 21 19 25 23 27 36 13 13 -14 12 -15
-2 -9 -9 3 -21 0 -26 -6 -13 -15 -45 -127 -39 -133 2 -3 40 -13 84 -24 43 -10
103 -28 133 -40 29 -11 59 -19 67 -16 8 3 12 2 9 -3 -8 -13 82 -64 97 -55 6 4
9 3 4 -1 -4 -5 12 -21 35 -36 31 -21 46 -25 59 -18 26 14 36 11 15 -4 -17 -13
-15 -16 28 -51 29 -24 52 -36 62 -32 10 4 14 2 11 -6 -2 -7 6 -25 20 -39 l24
-26 87 22 c47 12 88 28 90 34 2 6 -1 10 -6 9 -12 -3 -62 67 -62 86 0 12 -22
35 -47 49 -7 5 -10 0 -7 -15 4 -23 4 -23 -7 -2 -8 15 -18 20 -37 17 -25 -3
-25 -3 -6 6 25 11 33 22 39 51 3 16 -3 20 -33 25 -20 4 -50 11 -67 16 -20 7
-31 6 -33 -1 -2 -6 -9 -4 -16 6 -12 16 -42 11 -32 -5 3 -3 -4 -7 -15 -7 -19 0
-19 1 2 17 21 16 21 16 -20 23 -23 3 -40 10 -37 15 3 5 -1 12 -10 15 -8 3 -12
2 -9 -4 3 -5 -4 -7 -15 -5 -16 3 -20 -1 -20 -21 0 -13 5 -24 10 -24 6 0 10 4
10 8 0 4 8 8 19 8 25 0 16 -23 -12 -32 -12 -4 -22 -6 -22 -4 0 2 -10 -2 -23
-9 -23 -12 -23 -12 -7 12 12 19 13 27 4 33 -8 5 -10 3 -4 -7 5 -8 4 -11 -1 -6
-14 13 -11 31 6 38 13 6 12 8 -4 14 -11 5 -21 3 -26 -5 -6 -10 -8 -10 -12 1
-2 7 -19 18 -38 24 -19 6 -36 18 -38 26 -3 11 -1 11 5 1 5 -7 23 -14 40 -15
17 -1 29 -6 25 -11 -3 -5 2 -6 12 -3 9 4 30 0 47 -8 16 -9 29 -11 29 -6 0 18
-194 80 -208 66 -2 -1 -16 10 -32 26 -16 16 -35 29 -44 29 -8 0 -18 4 -21 10
-4 7 3 7 20 0 41 -16 48 -13 41 18 -6 26 -6 26 9 8 8 -11 15 -23 15 -27 0 -4
12 -6 28 -3 26 4 26 4 5 -9 -26 -15 -18 -34 17 -40 14 -3 38 -8 54 -12 26 -7
27 -6 17 14 -7 11 -16 21 -20 21 -5 0 -16 12 -25 28 -17 26 -17 27 1 6 22 -25
80 -64 70 -46 -5 7 -3 12 4 12 7 0 9 -10 6 -25 -2 -14 -2 -23 1 -20 3 3 15 -3
26 -12 15 -14 18 -14 8 -2 -6 9 -8 20 -4 24 4 5 1 5 -7 0 -10 -6 -12 -4 -6 5
5 9 14 4 32 -19 13 -17 32 -31 42 -31 9 0 22 -5 29 -12 6 -6 21 -13 33 -15 19
-3 19 -2 5 13 -9 8 -21 12 -27 8 -8 -4 -9 -3 -5 4 7 11 -32 38 -47 34 -5 -1
-6 1 -3 6 7 12 -38 54 -49 45 -4 -5 -5 -3 -2 4 4 6 -2 32 -13 58 -24 56 -24
47 0 75 11 13 20 19 20 15 0 -5 -8 -17 -17 -27 -13 -14 -14 -21 -5 -30 7 -7
12 -19 12 -29 0 -19 69 -100 112 -130 25 -18 32 -19 40 -8 8 11 9 11 5 -2 -3
-10 6 -22 29 -34 19 -10 37 -16 40 -13 3 4 -4 9 -15 13 -12 3 -28 20 -37 37
-22 42 -11 46 15 5 24 -39 40 -48 71 -42 11 2 18 0 15 -6 -4 -5 -2 -9 4 -9 5
0 18 -3 28 -7 16 -6 16 -5 4 10 -13 16 -12 17 13 7 25 -9 26 -8 15 11 -20 39
-4 28 26 -16 17 -25 36 -45 44 -45 11 0 9 4 -5 15 -12 9 -14 14 -6 15 7 0 10
5 6 11 -3 6 8 4 24 -5 29 -15 32 -15 41 2 6 9 11 12 11 5 0 -6 -10 -19 -22
-29 -18 -12 -19 -15 -5 -10 13 4 29 -4 53 -28 18 -18 37 -31 41 -27 4 3 2 -1
-5 -9 -12 -13 -17 -11 -38 15 -13 17 -24 24 -24 16 0 -11 -3 -11 -15 -1 -11 9
-15 9 -15 1 0 -7 -4 -9 -10 -6 -5 3 -10 2 -10 -4 0 -5 4 -13 10 -16 6 -3 10
-2 10 3 0 19 41 4 74 -26 19 -17 41 -29 49 -26 35 13 235 -102 404 -233 48
-38 94 -72 101 -77 9 -6 12 49 12 263 l0 270 -52 29 c-82 46 -154 66 -240 66
-58 1 -74 4 -66 13 9 12 0 23 -57 68 -18 15 -18 15 11 1 18 -8 45 -27 62 -41
16 -14 40 -25 53 -25 66 -1 182 -37 282 -88 4 -2 7 267 7 597 l0 601 -489 0
c-548 0 -501 7 -501 -78 l0 -47 -30 63 -29 62 -508 -2 -508 -3 -5 -200 c-3
-110 -7 -175 -9 -145 l-4 55 -7 -50 c-4 -27 -8 -40 -8 -28 -1 15 -7 21 -16 17
-8 -3 -16 3 -19 16 -4 17 -10 20 -28 15 -14 -5 -19 -3 -15 3 7 11 -9 25 -32
28 -24 4 -52 -35 -63 -89 -11 -52 -24 -77 -40 -77 -5 0 -9 10 -10 23 0 18 -3
16 -17 -13 -14 -30 -16 -84 -15 -389 1 -195 4 -383 8 -418 4 -35 3 -63 -2 -63
-10 0 -42 104 -50 160 -3 21 -21 54 -44 82 -21 26 -39 56 -39 68 0 13 -8 24
-19 27 -11 3 -21 17 -25 33 -3 16 -5 223 -6 461 0 238 -2 434 -3 435 -1 2 -17
-8 -35 -22 -30 -24 -31 -27 -17 -47 24 -35 19 -50 -14 -44 -38 8 -53 -10 -80
-93 -17 -50 -20 -56 -16 -25 16 107 35 147 101 210 35 34 64 65 64 68 0 4
-206 7 -457 7 l-458 0 -22 -33 c-13 -17 -50 -61 -84 -97 l-61 -65 49 60 c27
33 61 77 77 98 l27 37 -606 0 -605 0 0 -705z m3281 666 c30 -12 64 -28 75 -36
10 -8 -10 -2 -46 12 -91 37 -200 43 -263 15 -61 -27 -113 -68 -143 -111 -13
-20 -24 -30 -24 -24 0 16 60 93 91 116 80 58 199 69 310 28z m947 17 c19 -19
15 -48 -7 -48 -20 0 -37 32 -26 50 8 13 18 13 33 -2z m-2848 -58 c0 -5 -5 -10
-11 -10 -5 0 -7 5 -4 10 3 6 8 10 11 10 2 0 4 -4 4 -10z m1799 6 c-2 -2 -35
-6 -74 -9 -41 -3 -60 -2 -45 3 25 8 127 13 119 6z m76 -16 c14 -7 8 -8 -20 -3
-22 3 -42 7 -44 9 -9 8 45 2 64 -6z m-1337 -23 c2 -12 -3 -17 -17 -17 -12 0
-21 6 -21 13 0 31 32 34 38 4z m1087 6 c-78 -40 -114 -107 -95 -173 5 -18 8
-36 6 -38 -9 -9 -28 77 -23 100 12 43 46 87 84 107 21 11 43 20 48 20 6 0 -3
-7 -20 -16z m773 -4 c3 -17 -23 -33 -39 -23 -5 3 -9 14 -9 25 0 15 6 20 22 17
13 -2 24 -10 26 -19z m-473 1 c3 -6 -1 -7 -9 -4 -18 7 -21 14 -7 14 6 0 13 -4
16 -10z m-1722 -92 c6 -18 -11 -48 -27 -48 -19 0 -29 30 -15 46 14 17 36 18
42 2z m-466 -30 c-3 -7 -5 -2 -5 12 0 14 2 19 5 13 2 -7 2 -19 0 -25z m-107
-2 c0 -2 -8 -10 -17 -17 -16 -13 -17 -12 -4 4 13 16 21 21 21 13z m104 -32 c4
-9 4 -19 2 -22 -10 -9 -36 8 -36 23 0 20 26 19 34 -1z m386 -13 c0 -6 -4 -13
-10 -16 -5 -3 -10 1 -10 9 0 9 5 16 10 16 6 0 10 -4 10 -9z m227 3 c-3 -3 -12
-4 -19 -1 -8 3 -5 6 6 6 11 1 17 -2 13 -5z m328 -86 c19 -22 19 -22 -10 2 -48
40 -51 43 -30 32 11 -6 29 -21 40 -34z m-850 -49 c11 -17 -1 -21 -15 -4 -8 9
-8 15 -2 15 6 0 14 -5 17 -11z m-125 -18 c8 -16 6 -23 -12 -35 -32 -23 -68
-21 -68 3 0 45 60 68 80 32z m1890 -66 c0 -8 -2 -15 -4 -15 -2 0 -6 7 -10 15
-3 8 -1 15 4 15 6 0 10 -7 10 -15z m790 -18 c0 -2 -17 -19 -37 -38 l-38 -34
34 38 c33 34 41 42 41 34z m765 -37 c44 -20 43 -27 -2 -8 -15 6 -57 15 -93 18
l-65 7 60 1 c39 0 74 -6 100 -18z m-1651 -7 c9 -22 -10 -41 -25 -26 -13 13 -5
43 10 43 5 0 12 -8 15 -17z m1736 -39 c0 -2 -9 0 -20 6 -11 6 -20 13 -20 16 0
2 9 0 20 -6 11 -6 20 -13 20 -16z m-1184 -107 c28 -55 42 -131 25 -141 -6 -4
-11 -12 -11 -18 0 -7 7 -5 18 3 26 23 102 70 102 64 0 -2 -19 -17 -42 -32 -24
-15 -50 -34 -58 -43 -30 -30 -93 -111 -89 -114 2 -2 14 -8 25 -14 19 -10 23
-8 28 11 4 12 20 38 37 57 18 19 28 28 24 20 -4 -8 -16 -24 -26 -35 -10 -11
-19 -35 -21 -53 -2 -25 -6 -31 -18 -27 -42 17 -73 18 -82 2 -4 -9 -15 -14 -22
-11 -8 3 -36 -11 -63 -32 -42 -33 -201 -115 -221 -114 -4 1 37 23 92 49 54 27
105 55 112 63 12 12 10 14 -13 16 -43 3 -40 12 4 12 31 0 44 6 58 24 24 32 22
40 -17 48 -24 5 -19 6 20 4 50 -3 54 -1 82 33 17 19 30 39 30 42 0 4 -16 13
-37 21 l-36 15 28 7 c23 6 32 2 52 -21 14 -15 22 -23 19 -17 -3 6 1 25 10 42
25 52 -5 138 -79 221 l-41 46 43 -40 c23 -22 54 -61 67 -88z m-2123 86 c-7 -2
-19 -2 -25 0 -7 3 -2 5 12 5 14 0 19 -2 13 -5z m64 -9 c-3 -3 -12 -4 -19 -1
-8 3 -5 6 6 6 11 1 17 -2 13 -5z m2303 3 c0 -2 -10 -12 -22 -23 l-23 -19 19
23 c18 21 26 27 26 19z m-2223 -23 c-3 -3 -12 -4 -19 -1 -8 3 -5 6 6 6 11 1
17 -2 13 -5z m168 -14 c13 -6 15 -9 5 -9 -8 0 -22 4 -30 9 -18 12 -2 12 25 0z
m-707 -11 c-2 -6 3 -14 11 -17 8 -3 11 0 7 7 -4 6 -5 11 -2 11 2 0 13 3 23 6
15 5 15 4 3 -5 -12 -9 -11 -11 10 -11 21 -1 18 -4 -15 -16 -62 -23 -98 -34
-117 -34 -14 0 -13 4 7 24 40 40 78 58 73 35z m819 -25 c-3 -3 -12 -4 -19 -1
-8 3 -5 6 6 6 11 1 17 -2 13 -5z m-1116 -22 c-12 -9 -42 -34 -66 -54 -23 -21
-46 -38 -51 -38 -11 0 51 57 95 87 39 26 58 31 22 5z m3639 15 c0 -2 -10 -12
-22 -23 l-23 -19 19 23 c18 21 26 27 26 19z m-700 -54 c-24 -27 -47 -52 -52
-57 -4 -6 -8 -7 -8 -3 0 9 90 107 98 107 2 0 -15 -21 -38 -47z m-1465 -3 c9
-10 15 -26 12 -35 -8 -19 -23 -19 -31 0 -3 8 -13 15 -22 15 -14 0 -15 -2 -3
-17 13 -17 13 -17 -6 -3 -11 8 -21 15 -23 16 -6 4 37 44 46 44 5 0 17 -9 27
-20z m-1334 -17 c13 -15 12 -15 -8 -5 -18 10 -24 9 -32 -5 -6 -10 -11 -13 -11
-7 0 11 20 34 31 34 4 0 13 -7 20 -17z m2730 -10 c-12 -20 -14 -14 -5 12 4 9
9 14 11 11 3 -2 0 -13 -6 -23z m768 -11 c164 -55 254 -164 170 -207 -17 -9
-38 -14 -47 -12 -13 4 -13 5 3 6 30 2 65 29 65 51 0 30 -66 89 -134 121 -65
30 -183 52 -238 44 -29 -4 -30 -4 -8 4 14 5 44 9 68 10 26 1 42 6 42 14 0 8 3
9 8 1 4 -6 36 -20 71 -32z m-1219 -177 c12 -20 12 -20 -7 0 -11 11 -55 58 -98
105 l-79 85 86 -85 c47 -47 92 -94 98 -105z m-2383 143 c-3 -7 -5 -2 -5 12 0
14 2 19 5 13 2 -7 2 -19 0 -25z m168 14 c-3 -3 -11 0 -18 7 -9 10 -8 11 6 5
10 -3 15 -9 12 -12z m3215 14 c0 -2 -7 -7 -16 -10 -8 -3 -12 -2 -9 4 6 10 25
14 25 6z m-3465 -43 c-35 -55 -45 -67 -45 -58 0 10 50 85 58 85 2 0 -4 -12
-13 -27z m3602 -10 c-3 -10 -5 -4 -5 12 0 17 2 24 5 18 2 -7 2 -21 0 -30z
m-3460 5 c-3 -8 -6 -5 -6 6 -1 11 2 17 5 13 3 -3 4 -12 1 -19z m1403 -8 c12
-16 19 -30 16 -30 -2 0 -14 14 -26 30 -12 17 -19 30 -16 30 2 0 14 -13 26 -30z
m-1850 10 c0 -5 -4 -10 -10 -10 -5 0 -10 5 -10 10 0 6 5 10 10 10 6 0 10 -4
10 -10z m779 -39 c12 5 27 7 31 4 5 -3 11 -1 15 5 3 5 11 10 17 10 6 0 6 -6
-2 -15 -7 -8 -19 -14 -28 -13 -8 2 -17 -3 -20 -11 -3 -8 0 -11 7 -7 6 4 11 3
11 -3 0 -14 81 -89 113 -103 15 -7 27 -16 27 -21 0 -4 -10 -2 -22 5 -13 7 -30
13 -38 13 -8 0 -13 3 -10 6 8 11 -33 50 -47 45 -7 -3 -12 -2 -12 2 3 21 -3 23
-22 6 -22 -19 -22 -19 -10 3 10 19 8 24 -14 39 -24 16 -26 15 -91 -37 -61 -48
-65 -54 -48 -66 15 -11 20 -10 33 1 9 7 27 17 41 21 14 4 32 13 40 19 13 9 13
9 2 -6 -7 -9 -26 -20 -42 -23 -16 -3 -34 -13 -40 -20 -10 -13 -16 -12 -40 0
-20 10 -30 11 -39 2 -8 -8 -14 -8 -23 2 -11 10 -9 11 7 5 18 -7 19 -6 5 11
-14 16 -13 17 5 12 14 -5 39 8 89 45 l68 51 -56 29 c-75 38 -71 44 7 9 46 -21
68 -26 86 -20z m-16 29 c-3 -11 -9 -20 -15 -20 -5 0 -4 9 2 20 6 11 12 20 14
20 2 0 2 -9 -1 -20z m2255 13 c-16 -2 -40 -2 -55 0 -16 2 -3 4 27 4 30 0 43
-2 28 -4z m-2631 -35 c-3 -8 -6 -5 -6 6 -1 11 2 17 5 13 3 -3 4 -12 1 -19z
m3015 -23 c-4 -37 4 -44 28 -22 12 10 12 9 1 -5 -7 -10 -20 -18 -27 -18 -8 0
-11 -6 -7 -16 4 -10 13 -14 27 -10 20 5 20 4 -2 -12 -19 -15 -22 -24 -17 -48
5 -22 4 -25 -4 -14 -6 8 -11 23 -11 33 0 17 -1 17 -16 3 -25 -25 -30 -19 -6 7
26 28 29 48 5 41 -17 -5 -17 -5 0 6 11 7 17 24 17 50 0 22 4 40 8 40 4 0 6
-16 4 -35z m87 8 c2 -1 -6 -1 -18 0 -11 1 -21 8 -21 15 0 12 3 12 18 1 9 -7
19 -14 21 -16z m99 20 c-10 -2 -26 -2 -35 0 -10 3 -2 5 17 5 19 0 27 -2 18 -5z
m304 -25 c-9 -9 -15 -9 -24 1 -11 10 -10 11 5 6 10 -5 17 -2 17 6 0 7 3 9 7 6
4 -4 1 -13 -5 -19z m-384 -5 c-9 -10 -19 -28 -22 -40 -4 -13 -15 -23 -24 -23
-13 0 -13 2 4 14 10 8 16 17 12 21 -7 7 22 43 36 44 5 1 2 -7 -6 -16z m-2538
1 c0 -8 -19 -13 -24 -6 -3 5 1 9 9 9 8 0 15 -2 15 -3z m711 -11 c13 -16 12
-17 -3 -4 -10 7 -18 15 -18 17 0 8 8 3 21 -13z m-1476 -13 c-3 -5 -14 -10 -23
-9 -14 0 -13 2 3 9 27 11 27 11 20 0z m48 -5 c-3 -9 -8 -14 -10 -11 -3 3 -2 9
2 15 9 16 15 13 8 -4z m238 -2 c13 -16 12 -17 -3 -4 -10 7 -18 15 -18 17 0 8
8 3 21 -13z m603 -8 c-5 -12 -10 -12 -27 -3 -21 11 -21 11 -2 18 25 9 36 4 29
-15z m2449 18 c-7 -2 -19 -2 -25 0 -7 3 -2 5 12 5 14 0 19 -2 13 -5z m64 -9
c-3 -3 -12 -4 -19 -1 -8 3 -5 6 6 6 11 1 17 -2 13 -5z m-2522 -53 c3 -5 -2
-12 -11 -15 -8 -3 -12 -2 -9 4 3 6 2 10 -3 10 -5 0 -18 12 -27 27 l-18 26 31
-22 c17 -12 34 -26 37 -30z m2451 21 c-4 -3 -14 2 -24 12 -16 18 -16 18 6 6
13 -6 21 -14 18 -18z m294 13 c0 -9 -6 -12 -15 -9 -8 4 -12 10 -9 15 8 14 24
10 24 -6z m-598 -35 c-9 -17 -23 -28 -29 -25 -7 2 -13 2 -13 -1 0 -2 11 -9 25
-14 14 -5 25 -17 25 -27 0 -15 -2 -15 -9 -4 -13 20 -44 24 -37 5 3 -9 1 -12
-4 -9 -6 3 -10 -2 -10 -12 0 -15 -2 -16 -10 -3 -5 8 -10 22 -10 30 0 13 1 13
10 0 8 -13 10 -12 11 5 1 11 1 24 0 28 -1 4 7 11 16 14 10 4 24 15 31 25 20
28 23 21 4 -12z m-2731 3 c13 -16 12 -17 -3 -4 -10 7 -18 15 -18 17 0 8 8 3
21 -13z m3331 3 c7 4 8 3 4 -4 -10 -16 -18 -15 -42 4 -18 14 -18 15 4 4 12 -6
28 -8 34 -4z m-3282 0 c0 -2 -7 -7 -16 -10 -8 -3 -12 -2 -9 4 6 10 25 14 25 6z
m1270 -11 c11 -13 10 -14 -4 -9 -9 3 -16 10 -16 15 0 13 6 11 20 -6z m1071 -2
c13 -16 12 -17 -3 -4 -17 13 -22 21 -14 21 2 0 10 -8 17 -17z m456 -5 c-3 -8
-6 -5 -6 6 -1 11 2 17 5 13 3 -3 4 -12 1 -19z m-550 -20 c-3 -8 -6 -5 -6 6 -1
11 2 17 5 13 3 -3 4 -12 1 -19z m632 -8 c11 -24 11 -24 -3 -6 -9 11 -16 24
-16 30 0 12 5 7 19 -24z m-3229 17 c0 -1 -24 -25 -52 -52 l-53 -50 50 53 c46
48 55 57 55 49z m3707 -19 c-3 -8 -6 -5 -6 6 -1 11 2 17 5 13 3 -3 4 -12 1
-19z m-2009 -18 c-3 -35 -2 -35 -19 -13 -10 11 -10 14 -1 9 8 -5 12 0 12 13 0
12 2 21 5 21 3 0 4 -13 3 -30z m-47 -7 c13 -16 12 -17 -3 -4 -10 7 -18 15 -18
17 0 8 8 3 21 -13z m956 11 c-3 -3 -12 -4 -19 -1 -8 3 -5 6 6 6 11 1 17 -2 13
-5z m239 -41 c-18 -33 -21 -26 -6 13 6 15 13 24 16 21 3 -3 -1 -18 -10 -34z
m-2395 -5 c14 -11 51 -22 83 -25 37 -4 53 -9 44 -14 -8 -5 -38 -1 -69 7 -30 9
-59 16 -66 16 -7 1 -11 5 -10 9 1 4 -7 15 -18 24 -25 20 1 8 36 -17z m1855
-26 l17 -27 -29 26 c-16 15 -40 30 -53 34 -17 5 -20 9 -11 15 17 10 53 -13 76
-48z m968 50 c3 7 3 3 0 -10 -3 -13 0 -31 8 -40 12 -15 11 -16 -4 -3 -15 11
-18 11 -18 0 0 -11 -2 -11 -10 1 -9 13 -10 13 -10 0 -1 -11 -4 -10 -15 4 -8
11 -15 27 -14 35 0 12 2 11 8 -3 8 -22 41 -31 41 -12 0 7 -6 18 -12 26 -11 12
-10 12 4 2 13 -10 17 -10 22 0z m-3604 -5 c0 -2 -12 -14 -27 -28 l-28 -24 24
28 c23 25 31 32 31 24z m2794 -13 c3 -8 2 -12 -4 -9 -6 3 -10 10 -10 16 0 14
7 11 14 -7z m251 6 c3 -6 -1 -7 -9 -4 -18 7 -21 14 -7 14 6 0 13 -4 16 -10z
m302 -32 c-3 -7 -5 -2 -5 12 0 14 2 19 5 13 2 -7 2 -19 0 -25z m-846 -12 c-13
-20 -19 -41 -14 -52 4 -12 3 -15 -5 -10 -7 4 -12 12 -12 18 0 12 39 78 47 78
2 0 -5 -15 -16 -34z m457 3 c-3 -8 -7 -3 -11 10 -4 17 -3 21 5 13 5 -5 8 -16
6 -23z m1079 9 c-3 -8 -6 -5 -6 6 -1 11 2 17 5 13 3 -3 4 -12 1 -19z m-658
-18 c11 -24 11 -24 -3 -6 -9 11 -16 24 -16 30 0 12 5 7 19 -24z m-1289 -10 c0
-11 -2 -20 -5 -20 -2 0 -9 9 -15 20 -9 16 -8 20 5 20 8 0 15 -9 15 -20z m598
-5 c-3 -3 -9 2 -12 12 -6 14 -5 15 5 6 7 -7 10 -15 7 -18z m-2497 -18 c-10 -9
-11 -8 -5 6 3 10 9 15 12 12 3 -3 0 -11 -7 -18z m3489 -25 c3 -2 -4 -2 -15 0
-20 3 -44 26 -45 42 0 5 12 -1 28 -15 15 -13 29 -26 32 -27z m4 32 c3 -8 2
-12 -4 -9 -6 3 -10 10 -10 16 0 14 7 11 14 -7z m353 -6 c-3 -8 -6 -5 -6 6 -1
11 2 17 5 13 3 -3 4 -12 1 -19z m-1357 -32 c0 -12 -5 -7 -19 24 -11 24 -11 24
3 6 9 -11 16 -24 16 -30z m926 19 c0 -14 -1 -25 -2 -25 0 0 -9 10 -20 22 -17
19 -17 21 -1 15 9 -4 17 -2 17 3 0 6 2 10 4 10 2 0 3 -11 2 -25z m-603 -8 c-8
-14 -63 -38 -63 -27 0 5 5 10 10 10 6 0 10 6 10 14 0 8 9 13 24 12 13 0 22 -4
19 -9z m-2872 -47 c-52 -47 -83 -61 -95 -41 -3 4 5 6 17 4 15 -2 37 10 72 42
27 25 52 45 55 45 3 -1 -19 -23 -49 -50z m2759 46 c0 -3 -28 -10 -62 -17 -34
-7 -70 -21 -80 -31 -10 -10 -18 -14 -18 -9 0 17 34 36 84 47 60 14 76 16 76
10z m1168 -23 c-31 -33 -71 -129 -65 -155 3 -10 1 -18 -4 -18 -27 0 17 128 59
173 14 15 28 27 31 27 2 0 -7 -12 -21 -27z m-4083 -13 c10 -11 16 -20 13 -20
-3 0 -13 9 -23 20 -10 11 -16 20 -13 20 3 0 13 -9 23 -20z m3253 3 c-21 -2
-57 -2 -80 0 -24 2 -7 4 37 4 44 0 63 -2 43 -4z m501 -27 c-3 -3 -11 5 -18 17
-13 21 -12 21 5 5 10 -10 16 -20 13 -22z m-3565 -21 c5 -22 4 -26 -4 -15 -5 8
-10 24 -10 34 0 26 6 18 14 -19z m216 -17 c0 -4 -10 -7 -22 -7 -19 1 -19 2 -5
6 18 5 18 5 0 26 l-18 22 23 -19 c12 -11 22 -23 22 -28z m376 -15 c-30 -44
-32 -53 -10 -53 9 0 12 5 8 13 -5 7 0 6 11 -3 10 -8 16 -10 12 -3 -11 18 9 25
23 8 7 -9 11 -18 8 -21 -13 -12 -83 -13 -137 0 -32 7 -69 13 -82 11 -15 -1
-16 0 -5 2 16 4 17 7 5 15 -10 7 -9 8 6 3 11 -4 43 -10 71 -14 l51 -7 27 49
c16 26 30 46 33 43 3 -2 -7 -22 -21 -43z m188 22 c-10 -8 -23 -14 -29 -14 -5
0 -1 6 9 14 11 8 24 15 30 15 5 0 1 -7 -10 -15z m2403 -57 c-2 -13 -4 -3 -4
22 0 25 2 35 4 23 2 -13 2 -33 0 -45z m-3277 39 c0 -2 -10 -12 -22 -23 l-23
-19 19 23 c18 21 26 27 26 19z m40 -7 c8 -5 11 -10 5 -10 -5 0 -17 5 -25 10
-8 5 -10 10 -5 10 6 0 17 -5 25 -10z m2419 -30 c0 -10 -3 -8 -9 5 -12 27 -12
43 0 25 5 -8 9 -22 9 -30z m-2305 6 c-10 -8 -21 -12 -24 -10 -5 6 21 24 34 24
6 0 1 -6 -10 -14z m850 -18 c-4 -6 -10 -5 -15 3 -14 22 -10 33 6 19 8 -7 12
-17 9 -22z m-1169 -17 c0 -16 -3 -27 -7 -24 -13 7 -7 53 6 53 1 0 1 -13 1 -29z
m115 16 c0 -2 -12 -14 -27 -28 l-28 -24 24 28 c23 25 31 32 31 24z m220 -18
c10 -6 1 -7 -23 -3 -34 6 -40 3 -78 -37 -82 -87 -110 -152 -111 -252 0 -55 -1
-59 -11 -32 -12 36 4 129 35 189 11 23 45 67 76 98 57 59 69 63 112 37z m247
-3 c-4 -10 7 -19 36 -30 23 -8 35 -15 27 -15 -8 0 -35 9 -60 19 -25 10 -37 19
-27 19 9 1 17 6 17 11 0 6 3 10 6 10 3 0 4 -6 1 -14z m-202 -24 c-3 -3 -11 0
-18 7 -9 10 -8 11 6 5 10 -3 15 -9 12 -12z m466 4 c-8 -10 -9 -16 -2 -21 12
-7 39 5 40 18 1 4 3 7 6 7 3 0 11 0 18 0 6 0 -3 -10 -21 -22 -26 -16 -30 -23
-20 -30 10 -8 9 -9 -4 -5 -19 7 -96 -57 -118 -97 -12 -24 -12 -29 0 -38 12 -8
12 -9 -2 -4 -16 5 -27 -14 -33 -54 0 -3 -6 -15 -13 -27 -11 -19 -9 -22 11 -26
20 -4 20 -4 -4 -6 -45 -2 -64 -36 -28 -49 20 -8 20 -8 -3 -27 -17 -16 -20 -16
-9 -2 11 14 11 17 -2 17 -8 0 -18 6 -21 13 -3 6 -4 3 -3 -8 1 -12 -4 -20 -13
-20 -8 0 -14 -8 -12 -16 1 -9 -5 -23 -15 -30 -11 -9 -14 -10 -9 -1 4 6 3 12
-3 12 -6 0 -8 7 -4 16 5 14 3 15 -15 5 -15 -8 -22 -8 -22 -1 0 5 4 10 8 10 5
0 17 6 27 14 16 12 17 16 6 30 -20 23 -48 20 -67 -9 -25 -38 -28 -23 -4 17
l20 35 -30 13 c-17 7 -29 15 -27 17 3 2 16 -2 31 -8 25 -12 30 -9 78 37 l52
49 -49 -54 c-45 -50 -48 -55 -30 -65 10 -6 27 -20 38 -30 20 -19 21 -19 51 18
32 37 72 133 61 144 -3 3 -20 1 -38 -6 -32 -12 -32 -11 -9 6 16 13 20 21 12
30 -7 9 -7 9 2 2 14 -12 58 -14 58 -2 0 4 11 20 25 36 13 16 22 33 18 39 -3 6
-1 7 5 3 7 -4 12 -2 12 3 0 7 -29 12 -72 13 l-73 1 65 6 c58 5 63 7 45 19 -14
10 -15 12 -3 8 9 -2 22 2 29 10 6 8 20 12 30 9 9 -3 20 -1 24 5 3 5 9 10 12
10 3 0 0 -6 -6 -14z m1709 -53 c0 -17 -5 -44 -11 -60 -7 -15 -11 -38 -10 -51
0 -13 -6 -35 -14 -50 -12 -23 -14 -24 -14 -7 -1 11 3 26 8 34 6 9 4 19 -5 28
-12 12 -12 17 1 29 15 16 19 28 16 53 -2 8 2 10 10 5 9 -5 11 4 6 36 -4 29 -2
39 4 29 5 -7 9 -28 9 -46z m-2054 38 c5 -5 18 -11 29 -14 11 -3 -2 -5 -28 -6
-41 -1 -46 1 -35 14 15 17 21 18 34 6z m3104 4 c0 -2 -10 -9 -22 -15 -22 -11
-22 -10 -4 4 21 17 26 19 26 11z m-3520 -22 c0 -3 -6 -3 -12 0 -7 2 -26 -7
-43 -22 l-30 -26 29 32 c16 17 34 29 42 26 8 -3 14 -7 14 -10z m617 1 c-3 -3
-12 -4 -19 -1 -8 3 -5 6 6 6 11 1 17 -2 13 -5z m3503 -4 c-8 -5 -19 -10 -25
-10 -5 0 -3 5 5 10 8 5 20 10 25 10 6 0 3 -5 -5 -10z m-3623 -6 c-3 -3 -12 -4
-19 -1 -8 3 -5 6 6 6 11 1 17 -2 13 -5z m60 -10 c-3 -3 -12 -4 -19 -1 -8 3 -5
6 6 6 11 1 17 -2 13 -5z m2981 -8 c-7 -8 -15 -12 -17 -11 -5 6 10 25 20 25 5
0 4 -6 -3 -14z m179 -12 c-3 -3 -12 -4 -19 -1 -8 3 -5 6 6 6 11 1 17 -2 13 -5z
m-3587 -20 c0 -2 -7 -4 -15 -4 -8 0 -15 4 -15 10 0 5 7 7 15 4 8 -4 15 -8 15
-10z m2073 1 c-3 -9 -8 -14 -10 -11 -3 3 -2 9 2 15 9 16 15 13 8 -4z m1462 5
c-11 -5 -27 -9 -35 -9 -9 0 -8 4 5 9 11 5 27 9 35 9 9 0 8 -4 -5 -9z m152 -25
c-15 -16 -19 -13 -11 9 3 9 10 13 15 10 5 -3 3 -11 -4 -19z m-3167 -5 c0 -5
-5 -10 -11 -10 -5 0 -7 5 -4 10 3 6 8 10 11 10 2 0 4 -4 4 -10z m175 -27 c-5
-15 -8 -31 -7 -35 1 -4 -5 -5 -13 -2 -11 4 -15 -1 -16 -17 0 -13 -3 -18 -6
-11 -7 19 -29 15 -76 -14 -32 -21 -38 -22 -24 -7 9 11 14 23 10 26 -3 4 3 7
15 7 12 0 40 7 62 16 32 13 42 23 47 46 3 16 8 26 11 24 2 -3 1 -18 -3 -33z
m64 34 c-2 -1 -13 -9 -24 -17 -19 -14 -19 -14 -6 3 7 9 18 17 24 17 6 0 8 -1
6 -3z m-698 -24 c13 -16 12 -17 -3 -4 -10 7 -18 15 -18 17 0 8 8 3 21 -13z
m-31 -23 c6 -11 8 -20 6 -20 -3 0 -10 9 -16 20 -6 11 -8 20 -6 20 3 0 10 -9
16 -20z m71 -7 c13 -16 12 -17 -3 -4 -10 7 -18 15 -18 17 0 8 8 3 21 -13z m50
-40 c13 -16 12 -17 -3 -4 -10 7 -18 15 -18 17 0 8 8 3 21 -13z m77 -184 c21
-1 -25 -17 -53 -18 -19 0 -19 0 -1 10 17 10 14 15 -30 62 l-49 51 58 -52 c32
-29 66 -52 75 -53z m3910 44 c-10 -2 -26 -2 -35 0 -10 3 -2 5 17 5 19 0 27 -2
18 -5z m-333 -22 c3 -5 2 -12 -3 -15 -5 -3 -9 1 -9 9 0 17 3 19 12 6z m27 -16
c-2 -14 -6 -25 -8 -25 -2 0 -4 11 -4 25 0 14 4 25 9 25 4 0 6 -11 3 -25z
m-3546 -27 c4 -7 3 -10 -1 -5 -5 4 -17 -1 -28 -10 -19 -17 -20 -17 -8 5 13 25
26 28 37 10z m132 -49 c-6 -16 -12 -28 -14 -26 -5 5 13 57 20 57 3 0 0 -14 -6
-31z m-185 -9 c-3 -12 -8 -19 -11 -16 -5 6 5 36 12 36 2 0 2 -9 -1 -20z m118
-19 c-24 -19 -22 -44 4 -35 10 4 12 0 8 -15 -7 -26 -7 -26 -43 0 l-29 22 32
23 c38 27 62 32 28 5z m35 -58 c-8 -15 -15 -25 -16 -21 0 12 23 58 27 54 3 -2
-2 -17 -11 -33z m-171 -36 c-6 -55 -2 -97 20 -197 3 -14 -1 -9 -8 10 l-14 35
-7 -29 c-4 -16 -9 -26 -12 -24 -2 3 0 17 5 32 6 15 7 43 2 69 -7 38 6 167 17
167 2 0 1 -28 -3 -63z m-212 46 c-7 -2 -19 -2 -25 0 -7 3 -2 5 12 5 14 0 19
-2 13 -5z m273 -25 l29 -31 -37 28 c-39 28 -45 35 -30 35 5 0 21 -14 38 -32z
m3631 17 c0 -8 -4 -12 -9 -9 -5 3 -6 10 -3 15 9 13 12 11 12 -6z m-3789 -9
c15 -8 38 -27 52 -43 l25 -28 -30 26 c-17 15 -43 34 -60 42 -16 9 -26 16 -22
17 4 0 20 -6 35 -14z m3850 -41 c-3 -3 -9 2 -12 12 -6 14 -5 15 5 6 7 -7 10
-15 7 -18z m-3619 -64 c-12 -59 -14 -60 -23 -11 -4 22 -3 30 3 21 6 -10 11 -5
16 18 4 18 9 31 11 28 2 -2 -1 -28 -7 -56z m3558 22 c-3 -10 -5 -4 -5 12 0 17
2 24 5 18 2 -7 2 -21 0 -30z m124 -61 c19 22 19 21 -1 -12 -11 -19 -20 -44
-21 -55 -1 -19 -28 109 -27 130 0 6 7 -12 15 -38 l14 -48 20 23z m266 -34 c-3
-7 -5 -2 -5 12 0 14 2 19 5 13 2 -7 2 -19 0 -25z m-3970 -10 c-3 -8 -6 -5 -6
6 -1 11 2 17 5 13 3 -3 4 -12 1 -19z m3972 -36 c-1 -15 -2 -15 -6 1 -4 15 -7
16 -21 5 -15 -12 -16 -11 -3 4 15 20 32 15 30 -10z m-3982 -14 c-3 -8 -6 -5
-6 6 -1 11 2 17 5 13 3 -3 4 -12 1 -19z m3672 -52 c-9 -8 -10 -7 -5 7 3 10 7
26 7 35 1 9 4 6 6 -7 3 -13 -1 -28 -8 -35z m-3700 -126 c-1 -18 -36 92 -43
135 -3 17 6 -4 19 -45 14 -41 25 -82 24 -90z m18 118 c-3 -7 -5 -2 -5 12 0 14
2 19 5 13 2 -7 2 -19 0 -25z m3742 18 c-2 -2 -15 -9 -29 -15 -24 -11 -24 -11
-6 3 16 13 49 24 35 12z m-3842 -73 c-3 -10 -5 -4 -5 12 0 17 2 24 5 18 2 -7
2 -21 0 -30z m3744 0 c-9 -16 -10 -14 -11 12 0 21 3 26 11 18 8 -8 8 -16 0
-30z m23 -58 c-14 -57 -24 -80 -24 -58 0 5 4 23 9 39 5 16 12 42 16 58 3 15 8
26 10 24 3 -2 -2 -31 -11 -63z m296 -90 c-30 -30 -57 -55 -61 -55 -8 0 103
109 111 110 2 0 -20 -25 -50 -55z m-3951 -10 c0 -5 -4 -3 -9 5 -5 8 -9 22 -9
30 0 16 17 -16 18 -35z m3508 13 c-3 -8 -6 -5 -6 6 -1 11 2 17 5 13 3 -3 4
-12 1 -19z m282 -11 c14 -17 4 -27 -26 -27 -25 0 -29 10 -11 28 15 15 23 15
37 -1z m-3949 -44 c0 -8 -4 -12 -9 -9 -14 9 -20 -16 -9 -37 5 -10 7 -21 5 -23
-3 -3 -13 13 -23 35 -11 22 -30 45 -44 52 l-25 13 35 6 c37 6 70 -11 70 -37z
m97 -5 c-3 -8 -6 -5 -6 6 -1 11 2 17 5 13 3 -3 4 -12 1 -19z m3923 18 c0 -2
-8 -10 -17 -17 -16 -13 -17 -12 -4 4 13 16 21 21 21 13z m20 -29 c0 -2 -12
-14 -27 -28 l-28 -24 24 28 c23 25 31 32 31 24z m-3921 -39 c6 -18 7 -28 2
-23 -10 12 -25 55 -18 55 3 0 10 -15 16 -32z m3834 -43 c-3 -9 -8 -14 -10 -11
-3 3 -2 9 2 15 9 16 15 13 8 -4z m-156 -17 c-3 -8 -6 -5 -6 6 -1 11 2 17 5 13
3 -3 4 -12 1 -19z m123 -21 c0 -2 -12 -14 -27 -28 l-28 -24 24 28 c23 25 31
32 31 24z m266 -13 c18 -14 18 -14 -6 -3 -31 14 -36 19 -24 19 6 0 19 -7 30
-16z m-394 -47 c4 -41 -22 -67 -159 -156 -103 -67 -127 -75 -33 -11 70 48 102
79 93 93 -3 6 -2 7 4 4 14 -9 55 32 47 45 -4 7 -2 8 5 4 7 -5 13 3 17 23 8 41
21 39 26 -2z m443 -57 c10 -11 16 -20 13 -20 -3 0 -13 9 -23 20 -10 11 -16 20
-13 20 3 0 13 -9 23 -20z m-415 7 c0 -1 -33 -34 -72 -72 l-72 -70 64 71 c56
61 80 83 80 71z m-140 -11 c0 -3 -4 -8 -10 -11 -5 -3 -10 -1 -10 4 0 6 5 11
10 11 6 0 10 -2 10 -4z m-3527 -77 c-7 -25 -15 -25 -11 0 2 11 -8 32 -22 48
l-25 28 31 -28 c21 -19 30 -35 27 -48z m3494 -77 c-10 -10 -38 -34 -65 -52
-57 -41 -49 -30 21 27 57 46 69 52 44 25z m-122 -12 c-3 -5 -12 -10 -18 -10
-7 0 -6 4 3 10 19 12 23 12 15 0z m138 -50 c-7 -25 -12 -25 -29 -3 -9 13 -9
22 -2 31 15 17 37 -3 31 -28z m-3135 5 c-3 -3 -9 2 -12 12 -6 14 -5 15 5 6 7
-7 10 -15 7 -18z m-35 -65 c6 0 8 -3 5 -6 -9 -8 -55 24 -63 43 -3 9 6 4 21
-10 15 -15 31 -27 37 -27z m-53 7 c0 -2 -14 -16 -32 -33 l-32 -29 25 32 c20
27 39 41 39 30z m3050 -2 c0 -2 -10 -9 -22 -15 -22 -11 -22 -10 -4 4 21 17 26
19 26 11z m-2990 -104 c0 -26 -34 -43 -72 -37 -22 4 -48 1 -60 -5 l-21 -11 24
-14 c13 -7 20 -13 16 -14 -5 0 -17 5 -28 11 -17 8 -24 7 -35 -8 -14 -17 -14
-17 -5 3 6 12 7 24 4 28 -7 7 -86 -54 -121 -93 l-23 -26 17 27 c9 16 38 44 65
64 53 39 55 43 37 64 -11 12 -10 12 5 1 14 -11 20 -11 35 0 15 13 16 12 4 -3
-19 -24 -5 -44 17 -24 42 38 141 64 141 37z m2870 -56 c0 -5 -5 -3 -10 5 -5 8
-10 20 -10 25 0 6 5 3 10 -5 5 -8 10 -19 10 -25z m200 20 c0 -8 -4 -15 -10
-15 -5 0 -10 7 -10 15 0 8 5 15 10 15 6 0 10 -7 10 -15z m-2747 -32 c32 -14
37 -20 37 -50 0 -18 -7 -50 -15 -69 -8 -20 -12 -41 -8 -48 3 -6 3 -8 -2 -4 -8
7 -47 -42 -79 -98 -14 -24 -16 -25 -10 -5 5 20 3 23 -11 17 -46 -17 -63 -14
-20 4 28 12 58 31 68 43 31 37 67 120 67 155 0 27 -5 35 -32 46 -18 8 -44 19
-58 25 l-25 11 25 -6 c14 -3 42 -12 63 -21z m-108 -21 c-15 -16 -16 -15 -4 12
7 15 15 23 17 16 3 -7 -3 -19 -13 -28z m-218 -18 c-3 -3 -12 -4 -19 -1 -8 3
-5 6 6 6 11 1 17 -2 13 -5z m166 -11 c-7 -2 -19 -2 -25 0 -7 3 -2 5 12 5 14 0
19 -2 13 -5z m-423 -48 c0 -5 -5 -3 -10 5 -5 8 -10 20 -10 25 0 6 5 3 10 -5 5
-8 10 -19 10 -25z m3161 -15 c-20 -20 -31 -43 -34 -68 l-4 -37 -1 37 c-2 26 5
45 24 67 14 17 30 31 36 31 5 0 -4 -14 -21 -30z m562 23 c-7 -2 -19 -2 -25 0
-7 3 -2 5 12 5 14 0 19 -2 13 -5z m80 -34 c99 -65 148 -157 155 -288 3 -60 2
-82 -7 -77 -7 4 -9 2 -5 -7 8 -22 -51 -132 -98 -183 -23 -25 -60 -59 -82 -77
-25 -19 -14 -5 26 34 68 66 103 128 143 248 43 131 -32 291 -170 364 -16 9
-25 16 -19 17 6 0 31 -14 57 -31z m-3887 -33 c-11 -30 -22 -50 -24 -46 -4 10
34 100 41 100 2 0 -5 -24 -17 -54z m2771 28 c-3 -3 -12 -4 -19 -1 -8 3 -5 6 6
6 11 1 17 -2 13 -5z m-2626 -71 c13 -16 12 -17 -3 -4 -10 7 -18 15 -18 17 0 8
8 3 21 -13z m2594 9 c-18 -15 -85 -54 -85 -48 0 3 19 16 43 30 43 26 59 33 42
18z m-2768 -99 c-2 -16 -4 -5 -4 22 0 28 2 40 4 28 2 -13 2 -35 0 -50z m91 35
c20 -20 14 -38 -12 -38 -30 0 -42 16 -26 35 15 18 22 19 38 3z m3192 -13 c13
-14 21 -25 18 -25 -2 0 -15 11 -28 25 -13 14 -21 25 -18 25 2 0 15 -11 28 -25z
m-2897 -12 c-7 -2 -19 -2 -25 0 -7 3 -2 5 12 5 14 0 19 -2 13 -5z m130 0 c-7
-2 -21 -2 -30 0 -10 3 -4 5 12 5 17 0 24 -2 18 -5z m-745 -21 c3 -9 -2 -13
-14 -10 -9 1 -19 9 -22 16 -3 9 2 13 14 10 9 -1 19 -9 22 -16z m685 11 c-7 -2
-21 -2 -30 0 -10 3 -4 5 12 5 17 0 24 -2 18 -5z m774 1 c-3 -3 -12 -4 -19 -1
-8 3 -5 6 6 6 11 1 17 -2 13 -5z m-858 -26 c0 -13 -3 -17 -6 -10 -2 6 -12 12
-21 13 -14 0 -13 2 3 9 11 5 21 9 23 9 1 1 2 -9 1 -21z m-343 -65 c7 -18 11
-33 8 -33 -7 0 -34 67 -33 82 0 8 3 8 6 -2 3 -8 12 -30 19 -47z m2792 50 c-21
-2 -57 -2 -80 0 -24 2 -7 4 37 4 44 0 63 -2 43 -4z m-2151 -15 c-16 -10 -64
-10 -70 0 -3 4 15 7 38 7 24 0 39 -3 32 -7z m-70 -50 c-3 -7 -5 -2 -5 12 0 14
2 19 5 13 2 -7 2 -19 0 -25z m2741 13 c11 -7 12 -12 1 -29 -17 -27 -50 -13
-42 18 6 21 20 25 41 11z m-3568 -41 c0 -5 -2 -10 -4 -10 -3 0 -8 5 -11 10 -3
6 -1 10 4 10 6 0 11 -4 11 -10z m295 -20 c10 -11 16 -20 13 -20 -3 0 -13 9
-23 20 -10 11 -16 20 -13 20 3 0 13 -9 23 -20z m615 -78 l25 -24 -32 22 c-33
21 -63 57 -63 74 0 5 10 -4 23 -20 12 -16 33 -40 47 -52z m847 -12 c7 -8 13
-22 13 -30 0 -8 -7 -4 -17 10 -9 14 -28 38 -42 55 l-26 30 30 -25 c16 -14 35
-32 42 -40z m1418 36 c16 -16 10 -26 -17 -26 -18 0 -25 20 -11 33 9 10 13 9
28 -7z m-1665 -9 c0 -2 -15 -16 -32 -33 l-33 -29 29 33 c28 30 36 37 36 29z
m-682 -44 c-4 -22 -48 -31 -48 -10 0 19 10 27 32 27 13 0 18 -6 16 -17z m178
-31 c-5 -4 -66 26 -66 33 0 3 16 -3 35 -12 19 -9 33 -18 31 -21z m44 -12 c8
-5 11 -10 5 -10 -5 0 -17 5 -25 10 -8 5 -10 10 -5 10 6 0 17 -5 25 -10z m727
-22 c-3 -8 -6 -5 -6 6 -1 11 2 17 5 13 3 -3 4 -12 1 -19z m-680 6 c-3 -3 -12
-4 -19 -1 -8 3 -5 6 6 6 11 1 17 -2 13 -5z m101 -21 c-10 -2 -26 -2 -35 0 -10
3 -2 5 17 5 19 0 27 -2 18 -5z m120 -10 c-15 -2 -42 -2 -60 0 -18 2 -6 4 27 4
33 0 48 -2 33 -4z m109 -25 c-3 -7 -5 -2 -5 12 0 14 2 19 5 13 2 -7 2 -19 0
-25z m343 23 c0 -14 -60 -71 -73 -71 -7 0 0 8 15 17 15 9 32 27 39 40 13 24
19 29 19 14z m2177 -38 c4 -12 -34 -29 -44 -19 -3 3 -3 12 1 21 7 18 37 17 43
-2z m-2510 -35 c-3 -8 -6 -5 -6 6 -1 11 2 17 5 13 3 -3 4 -12 1 -19z m236 -5
c-7 -2 -19 -2 -25 0 -7 3 -2 5 12 5 14 0 19 -2 13 -5z m209 -52 c2 -13 -3 -26
-9 -28 -9 -3 -13 7 -13 33 0 41 17 37 22 -5z m-387 -41 c10 -11 16 -20 13 -20
-3 0 -13 9 -23 20 -10 11 -16 20 -13 20 3 0 13 -9 23 -20z m461 -72 c2 -7 6
-23 10 -35 5 -19 2 -23 -15 -23 -14 0 -22 8 -27 28 -3 15 -7 32 -9 39 -2 6 1
14 8 16 14 5 30 -7 33 -25z m1891 6 c-3 -3 -12 -4 -19 -1 -8 3 -5 6 6 6 11 1
17 -2 13 -5z m-40 -10 c-3 -3 -12 -4 -19 -1 -8 3 -5 6 6 6 11 1 17 -2 13 -5z
m-1836 -105 c-9 -23 -10 -22 -10 11 -1 23 2 31 9 24 7 -7 7 -19 1 -35z"/>
<path d="M2850 4105 c0 -8 4 -15 10 -15 5 0 7 7 4 15 -4 8 -8 15 -10 15 -2 0
-4 -7 -4 -15z"/>
<path d="M4328 2213 c7 -3 16 -2 19 1 4 3 -2 6 -13 5 -11 0 -14 -3 -6 -6z"/>
<path d="M838 1533 c6 -2 18 -2 25 0 6 3 1 5 -13 5 -14 0 -19 -2 -12 -5z"/>
<path d="M1974 4053 c-57 -37 -135 -122 -167 -182 -22 -40 -25 -51 -13 -51 8
0 23 12 33 26 10 14 28 38 40 53 16 20 19 31 11 39 -8 8 -6 10 8 6 14 -3 37
14 83 59 67 69 70 93 5 50z"/>
<path d="M1840 3746 c0 -2 7 -7 16 -10 8 -3 12 -2 9 4 -6 10 -25 14 -25 6z"/>
<path d="M1405 3700 c3 -5 14 -10 23 -11 11 -1 8 -4 -8 -9 -22 -7 -22 -8 -4
-9 11 -1 23 2 27 5 11 11 -5 34 -25 34 -10 0 -16 -4 -13 -10z"/>
<path d="M1405 3583 c11 -3 22 -9 25 -14 8 -11 118 -39 150 -38 23 2 24 2 2 6
-14 3 -21 11 -20 21 2 10 -5 16 -22 18 -14 1 -54 4 -90 7 -36 4 -56 4 -45 0z"/>
<path d="M1255 3570 c6 -9 4 -11 -4 -6 -10 7 -121 -56 -121 -68 0 -2 11 -6 25
-8 13 -3 22 -2 20 2 -3 4 23 5 57 3 36 -4 58 -2 55 4 -3 5 10 7 31 4 l37 -4
-35 -14 c-37 -14 -37 -14 49 3 31 7 37 31 9 40 -23 7 -23 21 0 27 10 3 5 5
-13 7 -16 1 -37 3 -45 6 -59 16 -73 17 -65 4z m12 -66 c-3 -3 -12 -4 -19 -1
-8 3 -5 6 6 6 11 1 17 -2 13 -5z"/>
<path d="M1606 3567 c-13 -10 -15 -14 -5 -15 8 0 25 -3 39 -6 21 -6 22 -5 5 3
-18 9 -18 10 -2 10 10 1 15 6 12 11 -9 14 -28 13 -49 -3z"/>
<path d="M1400 3539 c0 -5 5 -7 12 -3 8 5 9 2 4 -11 -5 -15 -4 -16 8 -6 11 9
17 8 29 -4 13 -12 20 -13 42 -3 26 12 26 12 -22 24 -60 16 -73 17 -73 3z"/>
<path d="M741 3506 l-33 -33 48 -17 c59 -20 152 -21 178 -1 18 13 17 14 -7 20
-14 4 -32 3 -39 -1 -7 -4 -10 -3 -5 1 5 6 -94 67 -106 64 -1 0 -17 -15 -36
-33z m84 -46 c3 -5 1 -10 -4 -10 -6 0 -11 5 -11 10 0 6 2 10 4 10 3 0 8 -4 11
-10z"/>
<path d="M2020 3536 c0 -2 7 -7 16 -10 8 -3 12 -2 9 4 -6 10 -25 14 -25 6z"/>
<path d="M893 3517 c0 -8 6 -14 14 -14 9 0 10 4 2 14 -6 7 -12 13 -14 13 -1 0
-2 -6 -2 -13z"/>
<path d="M1530 3504 c0 -13 7 -15 31 -10 17 3 46 6 63 6 26 1 28 2 13 11 -13
7 -28 7 -50 -1 -22 -7 -33 -7 -35 0 -6 16 -22 12 -22 -6z"/>
<path d="M2072 3502 c2 -9 10 -16 16 -14 7 1 12 -2 12 -8 0 -5 5 -10 10 -10
13 0 -10 38 -28 45 -9 3 -12 -1 -10 -13z"/>
<path d="M942 3501 c-11 -7 -10 -10 3 -15 20 -7 38 1 30 15 -7 11 -16 11 -33
0z"/>
<path d="M1364 3461 c3 -4 -5 -6 -18 -4 -31 6 -72 -15 -57 -30 7 -7 14 -7 23
1 10 8 18 8 28 0 13 -8 13 -9 -1 -5 -9 3 -16 -1 -16 -8 0 -9 14 -8 53 6 30 11
62 19 73 19 28 0 52 11 45 21 -3 5 -34 9 -70 9 -36 0 -63 -4 -60 -9z"/>
<path d="M2111 3450 c0 -8 4 -22 9 -30 12 -18 12 -2 0 25 -6 13 -9 15 -9 5z"/>
<path d="M1295 3400 c-3 -5 -1 -10 4 -10 6 0 11 5 11 10 0 6 -2 10 -4 10 -3 0
-8 -4 -11 -10z"/>
<path d="M3731 3370 c-10 -5 -9 -8 2 -13 7 -3 19 -2 26 3 10 5 9 8 -2 13 -7 3
-19 2 -26 -3z"/>
<path d="M3833 3349 c14 -8 22 -8 30 0 8 8 3 11 -18 11 -26 -1 -28 -2 -12 -11z"/>
<path d="M1415 3338 c-51 -13 -135 -49 -135 -59 0 -4 -11 -10 -25 -13 -14 -4
-45 -24 -68 -46 -23 -22 -50 -43 -59 -46 -10 -3 -18 -10 -18 -15 0 -5 -10 -20
-22 -35 -13 -14 -22 -28 -20 -30 2 -3 -5 -13 -16 -22 -10 -9 -12 -13 -5 -8 8
5 16 6 19 3 3 -3 -6 -13 -20 -22 -14 -10 -24 -21 -21 -25 3 -4 -2 -13 -10 -20
-8 -7 -15 -17 -15 -23 0 -5 15 5 33 24 18 19 32 37 30 40 -2 4 4 10 12 13 12
4 14 10 5 25 -7 15 -7 22 2 27 7 4 10 4 6 -1 -4 -4 -3 -14 3 -21 9 -11 17 -9
42 9 18 12 34 23 36 25 3 1 -1 8 -7 14 -9 9 -12 8 -12 -3 0 -9 -12 -21 -27
-28 l-28 -13 26 24 c14 13 30 32 36 41 11 22 47 12 39 -10 -4 -8 6 -5 22 9 16
13 25 25 20 26 -5 2 -14 -1 -21 -6 -16 -14 -42 1 -32 18 5 8 11 8 17 2 11 -11
48 -4 48 9 0 5 -7 6 -15 3 -8 -4 -15 -1 -15 4 0 14 28 22 61 17 28 -3 180 37
179 48 -1 19 1 21 10 7 7 -10 13 -11 18 -4 15 22 72 36 135 32 124 -6 60 10
-143 36 -14 2 -43 -1 -65 -6z m-245 -152 c0 -2 -8 -10 -17 -17 -16 -13 -17
-12 -4 4 13 16 21 21 21 13z"/>
<path d="M3888 3343 c6 -2 18 -2 25 0 6 3 1 5 -13 5 -14 0 -19 -2 -12 -5z"/>
<path d="M3950 3329 c-1 -19 33 -68 50 -72 11 -3 20 -11 20 -17 0 -10 -3 -10
-14 -1 -11 9 -18 8 -30 -4 -20 -21 -20 -29 1 -46 15 -12 16 -12 10 4 -7 19 3
23 21 5 9 -9 7 -14 -5 -24 -16 -11 -16 -14 2 -48 11 -20 21 -32 23 -27 2 5 -4
23 -13 40 -8 17 -13 31 -10 31 2 0 16 -22 29 -48 22 -42 29 -49 56 -50 31 -1
32 0 26 36 l-6 37 16 -37 c10 -25 23 -38 35 -38 15 0 18 5 13 33 -13 72 -46
133 -67 120 -5 -3 -7 -1 -4 4 6 10 -13 24 -38 29 -5 1 -12 3 -15 4 -10 3 -45
11 -57 12 -7 1 -13 6 -13 13 0 11 -29 55 -30 44z m110 -102 c18 -21 20 -26 7
-21 -17 6 -37 34 -37 50 0 4 1 5 3 3 1 -2 13 -17 27 -32z m43 -57 c3 -11 1
-18 -4 -14 -5 3 -9 12 -9 20 0 20 7 17 13 -6z m30 -5 c-3 -9 -8 -14 -10 -11
-3 3 -2 9 2 15 9 16 15 13 8 -4z"/>
<path d="M3300 3312 c8 -5 26 -13 40 -16 17 -5 20 -4 10 2 -8 5 -26 13 -40 16
-17 5 -20 4 -10 -2z"/>
<path d="M3986 3307 c3 -10 9 -15 12 -12 3 3 0 11 -7 18 -10 9 -11 8 -5 -6z"/>
<path d="M1715 3300 c28 -12 37 -12 30 0 -3 6 -16 10 -28 9 -21 0 -21 -1 -2
-9z"/>
<path d="M3940 3290 c0 -5 5 -10 11 -10 5 0 7 5 4 10 -3 6 -8 10 -11 10 -2 0
-4 -4 -4 -10z"/>
<path d="M1810 3280 c0 -5 7 -10 15 -10 8 0 15 -4 15 -9 0 -13 36 -20 51 -9
11 8 10 9 -3 4 -10 -3 -18 -2 -18 3 0 4 -11 13 -25 19 -32 15 -35 15 -35 2z"/>
<path d="M3923 3263 c-19 -7 -16 -20 7 -26 10 -3 24 1 30 7 16 21 -6 32 -37
19z"/>
<path d="M1905 3240 c-3 -5 -1 -10 4 -10 6 0 11 5 11 10 0 6 -2 10 -4 10 -3 0
-8 -4 -11 -10z"/>
<path d="M3170 3240 c0 -4 28 -14 61 -24 34 -9 96 -33 138 -53 42 -20 81 -37
86 -38 6 0 9 -8 7 -18 -2 -11 2 -15 12 -11 11 4 13 -1 10 -25 -5 -33 4 -39 25
-18 10 10 11 8 5 -6 -5 -14 3 -27 32 -53 38 -32 64 -43 64 -26 0 5 -27 34 -59
65 -33 32 -57 57 -53 57 3 0 -7 14 -23 30 -16 17 -35 30 -42 30 -7 0 -13 6
-13 14 0 13 -25 25 -121 55 -53 17 -129 29 -129 21z"/>
<path d="M1263 3203 c0 -8 6 -9 19 -2 10 5 18 11 18 12 0 2 -8 3 -18 3 -10 0
-19 -6 -19 -13z"/>
<path d="M1600 3199 c-30 -5 -65 -11 -77 -12 -11 -1 -19 -5 -16 -9 2 -5 -3 -8
-11 -8 -23 0 -86 -32 -81 -41 3 -4 -5 -5 -17 -1 -15 4 -19 2 -13 -7 6 -10 2
-11 -15 -6 -22 7 -22 7 4 -27 38 -51 34 -55 -33 -30 -9 3 -12 1 -7 -6 5 -8 2
-10 -8 -6 -9 3 -16 10 -16 15 0 17 -19 9 -25 -11 -4 -11 -10 -18 -15 -15 -4 3
-26 -20 -49 -50 -23 -30 -39 -55 -35 -55 4 0 1 -6 -5 -13 -6 -8 -8 -17 -5 -20
4 -4 19 13 35 38 28 44 90 85 126 85 10 -1 1 -7 -20 -14 -88 -32 -137 -103
-118 -172 19 -69 24 -71 72 -31 23 21 46 37 50 37 3 0 9 17 13 38 3 21 18 55
33 74 27 35 70 64 81 54 2 -3 -6 -10 -19 -15 -41 -15 -77 -67 -84 -121 -2 -17
0 -30 4 -30 5 0 43 25 84 55 82 60 133 85 169 84 13 0 -3 -8 -34 -18 -66 -21
-208 -123 -208 -149 0 -17 11 -66 24 -112 6 -19 5 -21 -3 -10 -10 13 -11 13
-11 0 -1 -11 -4 -10 -15 4 -8 11 -15 27 -14 35 0 9 4 6 10 -8 12 -30 22 -22
14 12 -5 18 -12 24 -26 22 -10 -2 -19 0 -19 6 0 5 8 9 18 9 15 0 18 6 14 28
-5 36 -27 36 -77 -2 -23 -18 -34 -33 -31 -43 4 -10 2 -13 -8 -10 -8 3 -17 1
-19 -6 -3 -7 -5 -3 -5 8 -1 38 -40 150 -51 147 -8 -1 -7 7 2 25 8 16 12 35 9
43 -2 8 -1 12 3 8 8 -8 12 -5 80 77 27 33 43 54 34 48 -9 -7 -18 -10 -22 -7
-9 10 -116 -108 -110 -122 3 -8 -1 -14 -8 -14 -8 0 -25 -24 -39 -52 -30 -65
-33 -158 -6 -238 9 -30 22 -68 28 -85 5 -16 11 -37 13 -45 2 -8 4 -15 5 -15 1
0 3 -8 5 -18 9 -47 123 -217 146 -217 5 0 9 -7 9 -16 0 -10 6 -14 14 -11 8 3
22 -1 33 -9 17 -14 16 -14 -7 -4 -28 13 38 -53 157 -157 73 -64 83 -71 83 -53
0 5 -3 9 -7 9 -23 -4 -21 4 7 27 26 22 29 29 18 42 -11 13 -10 15 4 10 18 -7
34 17 17 28 -6 4 -6 11 1 19 7 8 9 19 5 25 -8 13 -32 13 -37 -1 -2 -6 -12 -1
-23 12 -20 22 -20 22 0 12 21 -11 58 -2 70 16 3 6 -1 19 -10 27 -9 9 -23 27
-31 40 -15 22 -51 23 -37 1 3 -6 1 -7 -5 -3 -6 4 -22 0 -36 -9 -16 -11 -26
-13 -31 -6 -3 7 3 11 15 11 12 0 18 5 15 10 -3 6 2 10 12 10 25 1 50 22 54 45
5 34 -11 96 -23 89 -6 -4 -8 -3 -5 3 6 9 -83 103 -98 103 -3 0 -3 -12 0 -27 5
-22 4 -25 -4 -12 -6 9 -12 25 -14 35 -1 11 -16 41 -31 67 -16 26 -26 51 -22
54 3 3 13 -10 21 -30 18 -43 110 -135 143 -144 13 -3 21 -11 19 -17 -3 -7 1
-20 9 -31 8 -10 14 -27 14 -37 0 -25 10 -23 53 13 20 17 37 26 37 20 0 -6 -18
-22 -39 -37 -22 -14 -44 -38 -49 -54 -9 -24 -7 -29 14 -38 24 -12 41 -1 29 18
-10 17 7 11 22 -7 8 -10 12 -12 8 -5 -3 6 -2 12 4 12 6 0 18 26 27 57 19 64
14 155 -11 203 -8 16 -15 33 -15 37 1 4 10 -9 20 -29 27 -51 35 -132 19 -203
-7 -33 -13 -69 -14 -80 0 -12 -15 -42 -32 -67 -33 -50 -33 -64 1 -47 21 10 21
10 -1 -8 -28 -23 -44 -113 -20 -113 9 0 18 -4 21 -9 4 -5 -3 -7 -14 -4 -26 7
-25 -5 4 -70 17 -40 36 -63 77 -92 73 -53 178 -105 212 -105 24 0 27 3 26 33
-1 17 -3 24 -6 15 -3 -14 -15 -9 -66 26 -35 24 -69 45 -77 49 -9 3 -10 6 -3 6
7 1 38 -15 70 -34 66 -40 73 -42 74 -17 0 13 2 14 6 2 4 -8 13 -21 22 -28 9
-8 10 -11 4 -7 -9 4 -12 -3 -9 -26 2 -26 13 -38 67 -72 35 -22 72 -50 81 -61
18 -21 18 -21 14 6 -3 15 -7 32 -10 37 -4 5 -2 12 3 16 6 3 8 12 5 20 -4 8 -9
13 -13 11 -3 -2 -5 114 -3 257 3 322 -8 528 -32 577 -35 73 -48 90 -87 117
-22 15 -47 34 -57 41 -16 13 -15 13 3 7 29 -10 55 -14 55 -10 0 12 -25 55 -32
55 -4 0 -7 3 -7 8 1 4 1 14 0 22 -1 13 -2 13 -11 0 -9 -13 -10 -13 -10 0 0 17
-31 39 -62 45 -12 3 -23 7 -27 11 -3 4 2 4 11 1 10 -3 20 -2 23 3 4 6 -1 10
-9 10 -9 0 -16 5 -16 10 0 6 -7 10 -15 10 -8 0 -15 5 -15 10 0 6 13 4 31 -5
17 -9 38 -14 47 -12 12 3 10 5 -6 6 -13 0 -20 5 -17 11 3 6 -1 7 -9 4 -9 -3
-16 -1 -16 6 0 6 -5 8 -10 5 -6 -3 -13 1 -16 9 -10 27 -27 18 -19 -11 5 -23 4
-25 -9 -14 -9 7 -13 17 -11 21 5 9 -53 -5 -63 -14 -3 -3 18 -27 45 -53 85 -80
127 -193 112 -296 -6 -38 -35 -109 -77 -189 -2 -3 3 -8 10 -11 7 -2 5 -3 -5
-1 -21 3 -80 -65 -72 -84 3 -7 0 -10 -5 -7 -6 3 -10 -5 -10 -19 0 -19 5 -26
20 -26 22 0 27 -15 7 -23 -17 -6 -66 3 -73 14 -7 13 13 47 66 109 26 30 56 69
67 85 31 47 63 141 63 189 0 79 -58 225 -83 209 -5 -3 -7 -1 -3 5 3 6 1 14 -6
19 -13 8 -18 9 -40 12 -10 1 -10 3 1 10 9 6 10 10 2 16 -7 4 -23 -1 -37 -10
-25 -16 -25 -16 -14 5 6 12 16 18 23 13 8 -4 7 -1 -1 9 -14 17 -66 34 -92 29
-39 -7 -86 -81 -94 -148 -5 -35 -2 -41 44 -81 l48 -43 41 25 c22 14 49 26 58
25 15 -1 15 -2 -2 -7 -11 -4 -34 -16 -52 -26 -28 -17 -30 -22 -22 -45 l9 -26
-18 23 -18 24 -31 -26 c-17 -14 -35 -26 -39 -26 -5 1 7 14 26 31 l35 29 -39
36 c-30 28 -41 33 -48 22 -17 -24 -3 95 16 133 23 50 68 97 86 92 8 -2 6 1 -5
6 -37 16 -149 29 -163 18 -7 -5 -15 -7 -19 -3 -3 3 -1 6 6 6 7 0 10 4 6 9 -3
6 22 7 62 4 38 -3 86 -5 108 -5 30 0 35 -2 20 -8 l-20 -8 20 -6 c11 -4 32 -13
48 -21 15 -8 27 -10 27 -6 0 5 15 18 33 30 29 19 30 21 10 21 -13 0 -23 4 -23
8 0 5 17 7 39 6 58 -3 71 10 30 32 -19 10 -45 19 -58 20 -41 5 -35 14 7 10 24
-2 39 1 36 6 -3 5 -11 7 -17 5 -7 -2 -41 7 -77 20 -47 18 -78 24 -112 20 -27
-2 -48 0 -48 4 0 5 36 7 80 5 44 -1 81 0 83 3 2 3 3 1 1 -5 -1 -6 11 -15 27
-21 22 -8 29 -8 29 0 0 8 3 8 8 2 10 -15 53 -37 59 -31 3 2 18 -7 34 -21 27
-25 79 -38 79 -21 0 4 -21 28 -46 53 -88 85 -189 115 -314 94z m-50 -63 c0 -2
-11 -6 -25 -8 -13 -3 -22 -1 -19 3 5 9 44 13 44 5z m13 -23 c-7 -2 -19 -2 -25
0 -7 3 -2 5 12 5 14 0 19 -2 13 -5z m-73 -12 c-19 -4 -46 -13 -58 -20 -13 -7
-26 -10 -29 -7 -10 9 60 35 92 34 29 0 29 0 -5 -7z m193 2 c-7 -2 -21 -2 -30
0 -10 3 -4 5 12 5 17 0 24 -2 18 -5z m-248 -82 c-2 -4 -21 -5 -42 -2 -33 5
-34 6 -10 9 15 2 27 8 27 14 0 6 6 6 15 -2 8 -7 13 -15 10 -19z m75 -35 c0 -3
-4 -8 -10 -11 -5 -3 -10 -1 -10 4 0 6 5 11 10 11 6 0 10 -2 10 -4z m-80 -51
c-7 -8 -17 -15 -23 -15 -6 0 -2 7 9 15 25 19 30 19 14 0z m-279 -86 c-9 -22
-10 -22 -10 -3 -1 11 2 24 6 27 12 12 14 0 4 -24z m552 16 c-3 -9 -8 -14 -10
-11 -3 3 -2 9 2 15 9 16 15 13 8 -4z m-526 -47 c-3 -8 -6 -5 -6 6 -1 11 2 17
5 13 3 -3 4 -12 1 -19z m-40 -20 c-3 -8 -6 -5 -6 6 -1 11 2 17 5 13 3 -3 4
-12 1 -19z m200 -10 c-3 -8 -6 -5 -6 6 -1 11 2 17 5 13 3 -3 4 -12 1 -19z m93
-10 c10 -6 7 -7 -10 -2 -14 3 -32 11 -40 16 -10 6 -7 7 10 2 14 -3 32 -11 40
-16z m117 -70 c-2 -21 15 -88 22 -88 3 0 16 -19 29 -42 20 -38 53 -70 102 -98
8 -5 12 -11 9 -15 -11 -11 -91 57 -121 103 l-30 47 6 -59 c8 -70 -2 -70 -12 0
-5 35 -12 48 -25 50 -11 1 -22 6 -25 9 -4 4 0 6 8 5 35 -5 38 -1 29 41 -5 22
-7 44 -4 50 4 5 0 9 -8 9 -8 0 -21 7 -28 17 -13 15 -12 15 17 0 18 -9 31 -22
31 -29z m306 35 c-13 -2 -33 -2 -45 0 -13 2 -3 4 22 4 25 0 35 -2 23 -4z
m-566 -85 c-2 -13 -4 -5 -4 17 -1 22 1 32 4 23 2 -10 2 -28 0 -40z m750 35 c0
-9 -6 -9 -21 -1 -30 15 -30 16 -3 14 13 0 24 -6 24 -13z m-868 -92 c-1 -73 24
-134 75 -178 20 -18 33 -33 29 -33 -15 0 -71 56 -87 87 -22 44 -35 110 -29
149 8 51 13 41 12 -25z m306 21 c-3 -3 -11 0 -18 7 -9 10 -8 11 6 5 10 -3 15
-9 12 -12z m-137 -147 c11 -22 30 -53 41 -70 18 -25 21 -27 21 -10 0 16 2 17
10 5 5 -9 5 -17 -1 -21 -6 -3 -3 -11 6 -19 9 -7 21 -23 26 -34 6 -12 -7 -1
-30 24 -49 55 -119 190 -126 245 -4 32 -1 28 13 -20 10 -33 28 -78 40 -100z
m627 115 c21 -22 37 -40 34 -40 -3 0 -23 18 -44 40 -21 22 -37 40 -34 40 3 0
23 -18 44 -40z m-425 -30 c0 -5 -4 -10 -10 -10 -5 0 -10 5 -10 10 0 6 5 10 10
10 6 0 10 -4 10 -10z m-142 -43 c12 -14 27 -67 19 -67 -14 0 -37 13 -37 22 0
5 5 6 10 3 16 -10 11 17 -7 37 -9 10 -11 18 -6 18 6 0 15 -6 21 -13z m47 -27
c-3 -5 -10 -10 -16 -10 -5 0 -9 5 -9 10 0 6 7 10 16 10 8 0 12 -4 9 -10z m89
-59 c43 -43 54 -61 44 -66 -7 -5 -10 -4 -5 0 4 5 -18 35 -50 67 -32 32 -55 58
-52 58 2 0 31 -26 63 -59z m-190 -81 c4 0 4 6 0 13 -4 7 -3 9 2 4 5 -5 7 -10
4 -13 -3 -2 29 -37 70 -79 41 -41 72 -75 69 -75 -3 0 -50 44 -104 98 -55 53
-88 87 -74 75 14 -13 29 -23 33 -23z m628 4 c35 -25 54 -45 26 -28 -41 25 -80
54 -72 54 4 0 25 -12 46 -26z m-571 -11 c13 -16 12 -17 -3 -4 -10 7 -18 15
-18 17 0 8 8 3 21 -13z m645 -75 c23 -45 12 -43 -13 3 -12 21 -17 37 -12 33 5
-3 16 -19 25 -36z m-575 15 c13 -16 12 -17 -3 -4 -10 7 -18 15 -18 17 0 8 8 3
21 -13z m50 -40 c13 -16 12 -17 -3 -4 -10 7 -18 15 -18 17 0 8 8 3 21 -13z
m43 -92 c-2 -2 -10 1 -17 7 -8 7 -18 8 -22 4 -5 -4 -5 -1 0 7 5 9 2 18 -7 25
-8 6 -17 20 -21 30 -4 11 10 -1 32 -25 21 -24 37 -46 35 -48z m-148 63 c18
-14 18 -14 -6 -3 -31 14 -36 19 -24 19 6 0 19 -7 30 -16z m663 -68 c1 -55 -5
-42 -12 24 -3 34 -2 47 3 35 5 -11 9 -38 9 -59z m-531 -33 c24 -24 38 -43 30
-42 -7 1 -35 26 -63 57 -54 61 -39 53 33 -15z m519 -45 c-3 -7 -5 -2 -5 12 0
14 2 19 5 13 2 -7 2 -19 0 -25z m-352 -18 c3 -5 2 -10 -4 -10 -5 0 -13 5 -16
10 -3 6 -2 10 4 10 5 0 13 -4 16 -10z m336 -27 c-12 -20 -14 -14 -5 12 4 9 9
14 11 11 3 -2 0 -13 -6 -23z m-355 -30 c-7 -7 -26 7 -26 19 0 6 6 6 15 -2 9
-7 13 -15 11 -17z m325 -30 c-5 -10 -17 -27 -26 -38 -16 -19 -17 -19 -3 5 26
46 29 50 34 50 3 0 0 -8 -5 -17z"/>
<path d="M3264 3184 c11 -7 26 -14 33 -14 7 0 13 -4 13 -8 0 -5 7 -9 15 -9 24
0 1 19 -42 33 -34 11 -36 11 -19 -2z"/>
<path d="M2945 3182 c5 -11 -1 -13 -26 -11 -19 1 -51 -5 -73 -14 -21 -10 -43
-17 -48 -17 -5 0 -6 -4 -3 -10 3 -5 -1 -10 -10 -10 -10 0 -13 5 -9 12 4 7 3 8
-5 4 -8 -5 -9 -12 -2 -20 7 -8 3 -12 -15 -14 -14 -1 -30 -6 -37 -12 -43 -37
-55 -50 -84 -93 -18 -26 -33 -60 -33 -76 l0 -29 81 42 c77 39 86 41 168 41 73
-1 95 -5 146 -28 72 -34 125 -83 169 -157 50 -84 51 -105 10 -250 -4 -16 -3
-21 3 -15 9 9 15 27 43 125 l10 35 -6 -40 c-2 -22 -12 -64 -21 -93 -9 -29 -13
-56 -9 -59 6 -7 47 6 110 32 12 5 17 5 13 -1 -3 -6 -31 -19 -61 -29 -52 -18
-56 -18 -74 -2 -10 9 -21 14 -25 11 -9 -9 4 -35 14 -28 5 3 8 0 7 -8 -2 -7 2
-12 8 -11 16 3 0 -87 -25 -135 -11 -22 -18 -42 -16 -46 3 -3 2 -4 -2 -1 -8 6
-39 -37 -35 -50 2 -5 0 -7 -3 -3 -10 10 -47 -11 -40 -21 2 -5 -3 -8 -13 -7 -9
0 -16 -5 -15 -11 2 -7 0 -12 -5 -11 -15 5 -72 -25 -72 -38 0 -11 18 -14 75
-14 51 0 92 -7 131 -21 41 -15 59 -18 67 -10 8 8 6 11 -6 11 -9 0 -17 7 -17
15 0 8 5 15 10 15 6 0 10 -5 10 -12 0 -6 2 -9 5 -7 7 8 -7 49 -15 44 -4 -2 -2
17 4 43 l11 47 5 -53 c9 -82 31 -85 112 -13 47 40 111 140 103 159 -3 9 -3 13
1 9 4 -4 14 -1 22 6 13 10 14 8 7 -13 -7 -21 -6 -23 7 -13 8 7 18 10 21 6 4
-3 7 1 7 10 0 9 4 17 8 17 16 0 34 75 34 139 0 47 2 59 8 41 7 -22 8 -22 9 -4
1 11 -2 24 -6 28 -4 4 -6 24 -5 44 2 20 -4 72 -12 115 -18 94 -65 176 -136
240 -75 68 -108 79 -219 80 l-96 0 84 6 85 6 -54 29 c-77 42 -165 47 -248 13
-34 -13 -59 -21 -57 -17 3 5 30 18 60 31 30 12 55 27 55 31 0 5 -4 6 -10 3 -5
-3 -10 -2 -10 4 0 6 -8 8 -17 5 -14 -5 -15 -4 -4 4 7 5 23 7 35 5 17 -4 18 -3
6 6 -12 9 -9 11 15 12 17 1 23 3 14 6 -9 2 -34 0 -57 -5 -28 -7 -44 -6 -53 2
-9 8 -10 8 -4 -2z m-65 -52 c0 -5 -8 -10 -17 -10 -15 0 -16 2 -3 10 19 12 20
12 20 0z m-80 -44 c0 -2 -12 -11 -27 -20 l-28 -17 24 20 c23 21 31 25 31 17z
m283 -53 c-7 -2 -19 -2 -25 0 -7 3 -2 5 12 5 14 0 19 -2 13 -5z m-56 -9 c-3
-3 -12 -4 -19 -1 -8 3 -5 6 6 6 11 1 17 -2 13 -5z m-114 -31 c-7 -2 -19 -2
-25 0 -7 3 -2 5 12 5 14 0 19 -2 13 -5z m137 -13 c18 -12 2 -12 -25 0 -13 6
-15 9 -5 9 8 0 22 -4 30 -9z m61 -37 c13 -16 12 -17 -3 -4 -17 13 -22 21 -14
21 2 0 10 -8 17 -17z m69 -64 c22 -28 40 -56 40 -61 0 -6 -12 7 -26 28 -14 21
-35 49 -47 62 -11 12 -18 22 -14 22 4 0 25 -23 47 -51z m317 -136 c-20 -66
-56 -135 -67 -128 -5 3 -8 -4 -7 -15 1 -11 7 -20 14 -20 6 0 15 -4 18 -10 4
-6 -2 -7 -17 -1 -17 6 -32 2 -61 -16 -22 -13 -41 -22 -44 -20 -3 3 6 11 19 18
52 27 67 55 79 149 l8 65 -3 -75 -4 -74 21 39 c25 50 48 135 40 149 -4 7 -2 7
6 0 10 -9 9 -22 -2 -61z m-260 0 c-3 -10 -5 -4 -5 12 0 17 2 24 5 18 2 -7 2
-21 0 -30z m0 -45 c-3 -8 -6 -5 -6 6 -1 11 2 17 5 13 3 -3 4 -12 1 -19z m138
-108 c3 -6 -1 -7 -9 -4 -18 7 -21 14 -7 14 6 0 13 -4 16 -10z m175 -99 c0 -17
-46 -121 -54 -121 -2 0 7 29 22 65 25 64 25 65 6 87 l-19 23 23 -19 c12 -11
22 -26 22 -35z m-173 -13 c-3 -8 -6 -5 -6 6 -1 11 2 17 5 13 3 -3 4 -12 1 -19z"/>
<path d="M3088 3183 c6 -2 18 -2 25 0 6 3 1 5 -13 5 -14 0 -19 -2 -12 -5z"/>
<path d="M3148 3173 c7 -3 16 -2 19 1 4 3 -2 6 -13 5 -11 0 -14 -3 -6 -6z"/>
<path d="M3204 3163 c15 -4 16 -7 5 -14 -11 -7 -10 -9 4 -9 10 0 35 -9 56 -20
21 -10 41 -16 45 -13 3 4 6 2 6 -4 0 -12 50 -37 68 -34 7 1 11 -2 10 -6 -2 -4
0 -9 5 -10 33 -12 31 20 -2 44 -13 9 -36 17 -51 19 -16 2 -54 15 -85 29 -32
14 -63 24 -69 24 -6 -1 -2 -4 8 -6z"/>
<path d="M3157 3129 c7 -7 15 -10 18 -7 3 3 -2 9 -12 12 -14 6 -15 5 -6 -5z"/>
<path d="M1000 3103 c-8 -3 -24 -14 -35 -24 -11 -10 -32 -22 -47 -28 -34 -13
-37 -28 -5 -26 12 2 21 8 20 14 -4 16 17 13 23 -4 6 -14 12 -8 63 58 14 17 8
20 -19 10z"/>
<path d="M1055 2967 c-6 -7 -15 -19 -20 -27 -8 -13 -7 -13 8 -1 18 14 22 5 9
-17 -5 -7 -15 -10 -24 -7 -19 8 -71 -68 -72 -106 -1 -15 -4 -25 -7 -23 -4 2
-9 -5 -12 -16 -4 -17 3 -24 24 -22 3 1 3 -13 1 -29 -3 -19 -9 -28 -17 -25 -8
3 -19 -12 -28 -36 -14 -34 -14 -44 -3 -65 12 -23 14 -24 29 -8 9 9 17 11 17 5
0 -6 -7 -13 -15 -17 -13 -4 -11 -11 12 -33 20 -20 30 -25 36 -17 6 8 7 5 3 -6
-3 -10 -6 -24 -7 -30 0 -7 -4 -2 -9 11 -5 12 -17 25 -26 29 -28 10 -55 43 -48
56 4 7 -1 4 -12 -5 -13 -13 -19 -35 -21 -85 l-2 -68 15 58 c9 31 20 57 24 57
4 0 2 -21 -6 -47 -20 -65 -19 -94 4 -87 15 5 15 4 -2 -10 -14 -11 -17 -22 -12
-43 7 -29 73 -133 85 -133 3 0 29 -20 56 -45 28 -24 56 -42 63 -40 7 3 11 1 8
-4 -10 -15 197 -112 210 -98 8 8 -28 87 -37 81 -5 -3 -6 1 -4 9 6 14 -20 71
-32 73 -5 0 -25 8 -45 17 -21 10 -44 17 -52 17 -8 0 -17 4 -20 9 -5 8 48 0 97
-15 15 -5 16 -2 6 20 -7 14 -17 23 -23 19 -6 -3 -8 -3 -4 2 10 11 -11 47 -23
40 -5 -4 -7 -11 -4 -16 13 -20 -43 -8 -63 14 -28 30 -29 51 -2 44 28 -7 51 35
28 50 -7 3 -8 1 -4 -5 11 -18 -10 -14 -25 5 -12 14 -12 16 1 9 8 -5 3 3 -12
18 -30 29 -44 68 -32 87 4 8 3 9 -5 5 -8 -6 -10 -1 -6 16 3 13 -1 67 -10 119
-22 123 -22 122 8 212 14 42 21 79 16 82 -4 3 -6 12 -2 20 6 18 2 19 -12 2z
m-39 -108 c-15 -34 -15 -34 -9 -4 7 35 13 48 20 42 2 -3 -3 -20 -11 -38z m-39
-91 c-3 -8 -6 -5 -6 6 -1 11 2 17 5 13 3 -3 4 -12 1 -19z m-38 -132 c-13 -15
-19 -3 -12 24 6 22 7 22 14 4 3 -10 3 -23 -2 -28z m35 -1 c-4 -8 -11 -15 -16
-15 -6 0 -5 6 2 15 7 8 14 15 16 15 2 0 1 -7 -2 -15z m33 -217 c-3 -7 -5 -2
-5 12 0 14 2 19 5 13 2 -7 2 -19 0 -25z m82 -202 c-10 -9 -79 -14 -74 -5 4 5
22 9 42 9 20 0 34 -2 32 -4z"/>
<path d="M2765 2956 c-67 -17 -132 -51 -149 -79 -14 -22 -29 -97 -20 -97 3 0
22 16 42 36 50 48 96 70 162 78 l55 6 -49 -14 c-116 -34 -203 -119 -204 -201
-1 -46 -1 -47 26 -40 l27 7 -21 -24 c-24 -27 -44 -72 -22 -50 7 7 13 17 13 23
0 9 11 10 31 2 6 -2 35 8 65 22 30 13 65 24 79 24 19 -1 16 -3 -12 -10 -67
-15 -222 -101 -201 -111 11 -4 4 -418 -6 -418 -5 0 -7 10 -4 23 4 17 3 19 -6
11 -7 -7 -9 -22 -5 -39 4 -17 9 -23 14 -15 5 8 10 3 14 -13 l6 -26 52 35 c29
19 56 34 61 34 4 0 6 4 3 8 -2 4 3 8 12 9 9 1 28 4 42 8 14 3 -2 -7 -35 -25
-33 -17 -71 -39 -85 -50 l-25 -20 28 0 c15 0 27 -4 27 -10 0 -5 7 -10 15 -10
8 0 15 7 15 15 0 20 54 47 67 34 8 -8 13 -7 17 0 4 6 4 11 -1 11 -4 1 24 16
62 36 83 41 113 58 128 73 6 6 15 7 21 2 16 -13 83 35 123 87 47 62 60 116 38
161 l-17 36 -34 -69 c-18 -38 -31 -73 -28 -78 3 -4 0 -7 -8 -6 -7 2 -12 -5
-12 -14 1 -10 -2 -16 -6 -13 -11 7 -41 -30 -33 -41 5 -5 4 -6 -1 -2 -5 5 -23
-3 -40 -16 -33 -25 -170 -96 -183 -95 -5 0 28 19 73 42 92 48 114 65 167 126
26 32 35 51 31 65 -3 14 -2 17 4 8 9 -13 26 14 42 71 12 39 -6 34 -52 -13 -21
-23 -38 -38 -38 -35 0 3 18 25 41 50 34 37 39 47 29 64 -12 23 -46 45 -53 33
-2 -4 -2 -1 -1 5 6 22 -115 73 -176 75 -17 1 -26 4 -20 8 28 17 141 -21 212
-72 16 -11 33 -16 39 -12 8 5 9 3 5 -5 -7 -11 19 -51 33 -51 7 0 24 41 39 95
14 48 15 60 12 105 -3 31 -4 30 -10 -15 l-7 -50 -2 50 c-3 67 -19 105 -63 159
-74 88 -225 133 -343 102z m189 -232 c3 -8 2 -12 -4 -9 -6 3 -10 10 -10 16 0
14 7 11 14 -7z m31 -44 c10 -11 16 -20 13 -20 -3 0 -13 9 -23 20 -10 11 -16
20 -13 20 3 0 13 -9 23 -20z m60 -48 c-3 -3 -11 0 -18 7 -9 10 -8 11 6 5 10
-3 15 -9 12 -12z m45 -12 c8 -5 11 -10 5 -10 -5 0 -17 5 -25 10 -8 5 -10 10
-5 10 6 0 17 -5 25 -10z m55 -10 c-3 -5 -14 -10 -23 -10 -15 0 -15 2 -2 10 20
13 33 13 25 0z m-488 -68 c-9 -10 -23 -36 -31 -58 -8 -21 -15 -33 -15 -26 -1
7 6 28 13 47 11 26 12 35 3 35 -7 0 -1 6 13 13 31 17 38 12 17 -11z m204 1
c13 -16 12 -17 -3 -4 -17 13 -22 21 -14 21 2 0 10 -8 17 -17z m-138 -113 c3
-11 1 -18 -4 -14 -5 3 -9 12 -9 20 0 20 7 17 13 -6z m-116 -12 c-3 -8 -6 -5
-6 6 -1 11 2 17 5 13 3 -3 4 -12 1 -19z m163 8 c0 -2 -8 -10 -17 -17 -16 -13
-17 -12 -4 4 13 16 21 21 21 13z m-122 -101 c23 -10 31 -31 9 -22 -10 4 -12
-3 -9 -27 5 -36 -4 -33 -12 4 -2 14 -11 42 -20 62 -9 21 -16 43 -15 50 0 7 6
-3 13 -22 7 -19 22 -39 34 -45z m392 -95 c0 -5 -2 -10 -4 -10 -3 0 -8 5 -11
10 -3 6 -1 10 4 10 6 0 11 -4 11 -10z m-383 -32 c-3 -8 -6 -5 -6 6 -1 11 2 17
5 13 3 -3 4 -12 1 -19z"/>
<path d="M962 2933 c-20 -8 -82 -94 -76 -105 7 -12 80 66 87 93 3 11 4 19 4
18 -1 0 -8 -3 -15 -6z m-12 -33 c-6 -11 -13 -20 -16 -20 -2 0 0 9 6 20 6 11
13 20 16 20 2 0 0 -9 -6 -20z"/>
<path d="M3619 2902 c6 -10 7 -22 4 -26 -3 -3 -1 -6 5 -6 6 0 21 -31 33 -70
28 -85 47 -93 40 -15 -2 25 -28 82 -41 90 -6 4 -8 11 -5 16 3 5 -1 6 -10 3
-10 -4 -15 -2 -13 6 2 7 -3 15 -10 17 -11 4 -12 1 -3 -15z"/>
<path d="M3957 2896 c-10 -8 -15 -16 -10 -18 4 -3 16 3 26 14 20 21 10 24 -16
4z"/>
<path d="M3976 2862 c-6 -11 -2 -28 19 -77 8 -17 18 -43 24 -58 13 -33 31 -35
31 -4 0 32 -28 87 -43 83 -7 -1 -9 -1 -4 1 11 7 8 27 -6 48 -9 11 -16 14 -21
7z"/>
<path d="M4052 2806 c13 -24 24 -43 26 -41 9 9 -21 85 -33 85 -12 0 -11 -9 7
-44z"/>
<path d="M3627 2819 c4 -13 8 -18 11 -10 2 7 -1 18 -6 23 -8 8 -9 4 -5 -13z"/>
<path d="M2056 2813 c3 -28 28 -83 36 -83 11 0 11 3 -12 54 -20 49 -28 57 -24
29z"/>
<path d="M3635 2770 c-3 -14 -2 -37 3 -50 9 -25 9 -25 16 7 4 18 3 40 -3 50
-8 16 -10 15 -16 -7z"/>
<path d="M4081 2734 c0 -11 3 -14 6 -6 3 7 2 16 -1 19 -3 4 -6 -2 -5 -13z"/>
<path d="M747 2683 c-16 -24 -34 -58 -40 -76 -5 -18 -16 -49 -24 -70 -7 -21
-16 -65 -20 -98 -3 -32 -10 -56 -15 -53 -5 3 -7 -7 -4 -23 2 -15 7 -54 11 -85
7 -67 52 -138 86 -138 18 0 20 4 14 28 -3 15 -11 29 -16 30 -6 3 -5 10 2 18 9
11 9 18 1 26 -7 7 -12 24 -12 38 0 18 -8 31 -22 39 l-23 11 23 -6 c21 -5 22
-2 22 46 0 28 -5 61 -12 73 -10 20 -10 21 5 8 10 -7 17 -12 17 -10 0 3 17 112
34 219 1 9 5 21 10 28 4 6 3 18 -1 26 -6 10 -15 2 -36 -31z"/>
<path d="M3666 2699 c-9 -20 42 -122 55 -113 13 8 11 31 -6 65 -10 18 -20 27
-28 22 -7 -4 -5 2 3 12 8 10 10 16 3 12 -6 -4 -13 -1 -16 5 -3 9 -7 8 -11 -3z"/>
<path d="M4091 2694 c0 -11 3 -14 6 -6 3 7 2 16 -1 19 -3 4 -6 -2 -5 -13z"/>
<path d="M4101 2654 c0 -11 3 -14 6 -6 3 7 2 16 -1 19 -3 4 -6 -2 -5 -13z"/>
<path d="M3661 2583 c-1 -21 -3 -47 -3 -58 -3 -46 3 -73 17 -79 13 -4 14 -2 5
14 -7 14 -7 20 0 20 7 0 8 20 4 58 -8 72 -20 96 -23 45z"/>
<path d="M4113 2585 c0 -22 2 -30 4 -17 2 12 2 30 0 40 -3 9 -5 -1 -4 -23z"/>
<path d="M3696 2528 c5 -42 13 -48 12 -9 -1 18 -4 34 -8 36 -4 3 -6 -10 -4
-27z"/>
<path d="M631 2489 c1 -8 4 -25 8 -39 7 -24 7 -24 13 -4 3 11 -1 29 -8 39 -10
13 -14 15 -13 4z"/>
<path d="M3621 2364 c0 -11 3 -14 6 -6 3 7 2 16 -1 19 -3 4 -6 -2 -5 -13z"/>
<path d="M3432 2258 c-22 -30 -56 -71 -75 -91 -19 -20 -31 -37 -27 -37 4 0 10
3 14 8 4 4 13 7 19 7 7 1 11 6 10 13 -2 7 2 12 7 12 6 0 10 7 10 15 0 8 7 15
16 15 8 0 13 4 10 9 -3 4 3 16 14 26 11 10 20 23 20 28 0 5 8 16 17 23 10 7
15 15 11 19 -3 4 -24 -18 -46 -47z"/>
<path d="M4003 2244 c-20 -21 -16 -42 3 -22 9 9 15 21 13 26 -2 6 -9 4 -16 -4z"/>
<path d="M2470 2199 c0 -6 -9 -9 -20 -6 -11 3 -18 2 -15 -3 3 -4 -1 -23 -8
-41 -14 -36 -13 -97 2 -112 5 -5 18 15 31 49 12 33 25 64 30 69 11 13 2 55
-11 55 -5 0 -9 -5 -9 -11z"/>
<path d="M3489 2183 c-13 -16 -12 -17 4 -4 16 13 21 21 13 21 -2 0 -10 -8 -17
-17z"/>
<path d="M3975 2190 c-3 -5 1 -10 9 -10 9 0 16 5 16 10 0 6 -4 10 -9 10 -6 0
-13 -4 -16 -10z"/>
<path d="M2955 2165 c-16 -13 -36 -24 -42 -25 -7 0 -13 -5 -13 -11 0 -5 4 -7
10 -4 12 7 50 -12 50 -26 0 -6 -7 -4 -15 5 -18 18 -49 10 -41 -11 3 -8 1 -11
-4 -8 -6 3 -10 4 -10 1 0 -3 10 -10 21 -17 17 -9 20 -8 14 2 -5 8 -4 10 4 5 6
-4 17 -4 24 1 12 10 82 11 91 2 3 -3 -7 -6 -21 -7 -53 -4 -103 -23 -103 -38 0
-13 -4 -13 -29 2 -17 10 -27 22 -24 27 3 6 1 7 -4 4 -6 -4 -13 0 -17 8 -5 15
-36 21 -36 7 0 -4 -22 -18 -50 -31 -27 -13 -50 -27 -50 -31 0 -4 -23 -19 -51
-34 -61 -34 -71 -56 -67 -150 l3 -71 35 64 c19 36 67 97 109 140 42 42 75 78
74 81 -1 3 7 6 17 7 13 1 16 -4 13 -18 -3 -10 -10 -16 -15 -13 -12 8 -29 -16
-21 -29 2 -4 12 -2 21 5 15 11 15 11 4 -3 -18 -24 -52 -31 -45 -10 2 9 -21
-10 -51 -42 -33 -34 -54 -63 -50 -70 4 -7 4 -9 -1 -5 -20 19 -107 -164 -91
-191 4 -5 2 -12 -4 -16 -9 -5 -6 -102 3 -112 3 -2 10 10 15 27 6 17 21 44 32
60 12 17 18 35 14 41 -4 8 -3 9 4 5 7 -4 12 -1 12 9 0 10 5 13 12 9 8 -5 9 -2
5 10 -4 9 -3 15 2 11 5 -3 19 8 31 25 12 17 25 28 30 25 10 -6 32 20 24 28 -4
4 5 11 20 17 15 5 29 16 32 25 3 8 9 13 14 10 4 -2 21 8 39 22 20 17 28 29 20
33 -7 5 -5 9 6 13 9 4 13 3 10 -2 -3 -5 -1 -12 4 -15 5 -3 11 1 15 9 3 8 12
15 19 15 8 0 20 6 26 14 10 12 8 14 -11 9 -39 -8 0 14 56 33 28 9 55 21 60 25
69 54 68 53 51 74 -9 11 -14 15 -11 8 4 -6 -2 -13 -11 -15 -24 -5 -54 2 -48
12 3 4 -4 10 -15 13 -11 3 -20 1 -20 -3 0 -15 -47 -4 -75 18 l-27 21 36 22
c20 11 36 23 36 25 0 10 -17 2 -45 -21z m-16 -162 c2 -2 2 -5 -1 -8 -3 -3 -21
1 -40 9 -20 9 -38 12 -42 9 -3 -4 -6 3 -6 15 l0 20 43 -21 c23 -12 44 -23 46
-24z m-270 -260 c-13 -16 -28 -32 -33 -38 -4 -5 -3 0 3 12 12 23 39 53 48 53
4 0 -4 -12 -18 -27z m-59 -114 c0 -5 -4 -9 -10 -9 -5 0 -10 7 -10 16 0 8 5 12
10 9 6 -3 10 -10 10 -16z"/>
<path d="M1291 2156 c-2 -22 24 -76 35 -73 7 1 12 0 11 -3 -4 -14 38 -67 50
-63 7 3 13 -1 13 -9 0 -7 9 -14 20 -14 21 0 27 20 10 31 -6 4 -7 11 -4 17 4 6
2 8 -4 4 -6 -3 -13 -2 -17 4 -3 5 -11 10 -16 10 -6 0 -7 -5 -3 -12 4 -7 3 -8
-4 -4 -6 4 -8 14 -5 22 5 14 -23 30 -43 24 -4 0 -15 16 -25 37 -9 21 -18 34
-18 29z"/>
<path d="M900 2125 c0 -8 7 -15 15 -15 8 0 15 4 15 9 0 5 -7 11 -15 15 -9 3
-15 0 -15 -9z"/>
<path d="M2876 2121 c-4 -7 -5 -15 -2 -18 9 -9 19 4 14 18 -4 11 -6 11 -12 0z"/>
<path d="M2840 2101 c0 -5 5 -13 10 -16 6 -3 10 -2 10 4 0 5 -4 13 -10 16 -5
3 -10 2 -10 -4z"/>
<path d="M3285 2100 c3 -5 8 -10 11 -10 2 0 4 5 4 10 0 6 -5 10 -11 10 -5 0
-7 -4 -4 -10z"/>
<path d="M2251 2081 c-8 -5 -11 -16 -8 -25 7 -18 16 -20 37 -6 13 8 13 11 0
24 -10 10 -20 12 -29 7z"/>
<path d="M1610 2060 c0 -5 1 -11 2 -12 1 -2 -4 -13 -10 -24 -9 -18 -8 -25 9
-40 11 -10 26 -19 34 -20 11 -2 11 4 -1 32 -8 18 -14 43 -14 54 0 11 -4 20
-10 20 -5 0 -10 -4 -10 -10z m13 -61 c-8 -8 -13 -7 -18 2 -5 8 -4 10 3 5 7 -4
12 -2 12 5 0 7 3 9 7 6 4 -4 2 -12 -4 -18z"/>
<path d="M3174 2051 c8 -12 -19 -33 -30 -23 -4 4 -3 0 4 -9 6 -9 8 -19 4 -24
-4 -4 5 0 20 10 23 14 26 20 17 36 -5 10 -12 19 -15 19 -3 0 -3 -4 0 -9z"/>
<path d="M3345 2050 c-3 -5 -1 -10 4 -10 6 0 11 5 11 10 0 6 -2 10 -4 10 -3 0
-8 -4 -11 -10z"/>
<path d="M2569 2023 c-13 -16 -12 -17 4 -4 9 7 17 15 17 17 0 8 -8 3 -21 -13z"/>
<path d="M2270 2019 c0 -5 5 -7 10 -4 6 3 10 8 10 11 0 2 -4 4 -10 4 -5 0 -10
-5 -10 -11z"/>
<path d="M2564 1988 c-16 -18 -22 -27 -13 -20 9 6 20 8 24 4 5 -4 5 -2 1 5 -3
6 -1 15 5 19 8 5 10 -1 7 -19 -5 -25 -5 -25 18 -9 13 9 24 25 24 35 0 28 -33
20 -66 -15z"/>
<path d="M3104 2010 c-12 -5 -25 -13 -29 -19 -3 -6 -11 -9 -16 -6 -5 4 -9 1
-9 -5 0 -7 -7 -10 -15 -7 -23 9 -28 -11 -5 -23 14 -8 20 -8 20 0 0 6 5 8 10 5
6 -3 10 1 10 9 0 9 7 16 16 16 8 0 12 -5 8 -11 -5 -8 -1 -8 14 0 12 6 24 16
28 22 4 8 0 8 -15 0 -25 -14 -28 -3 -3 15 20 15 16 16 -14 4z"/>
<path d="M3271 1973 c-18 -12 -22 -13 -16 -2 5 8 1 7 -12 -4 -11 -9 -23 -14
-26 -10 -4 3 -7 1 -7 -5 0 -6 -14 -19 -31 -27 -19 -10 -29 -22 -25 -30 3 -9 0
-12 -9 -9 -8 4 -20 -6 -30 -25 -14 -28 -17 -30 -31 -16 -9 8 -18 15 -22 15 -4
0 5 -11 20 -24 15 -13 24 -28 20 -32 -4 -5 1 -2 11 5 9 7 17 21 17 29 0 12 3
13 12 4 9 -9 17 -7 37 11 13 12 21 16 17 9 -7 -11 -4 -11 12 -1 10 7 19 19 18
27 0 8 15 23 34 33 19 10 31 19 28 19 -4 0 -3 11 2 25 11 30 11 30 -19 8z"/>
<path d="M2176 1955 c-9 -26 -7 -32 5 -12 6 10 9 21 6 23 -2 3 -7 -2 -11 -11z"/>
<path d="M3744 1909 c-2 -4 0 -10 6 -14 11 -7 30 2 30 14 0 10 -29 10 -36 0z"/>
<path d="M706 1901 c-4 -6 12 -27 35 -48 53 -48 82 -65 48 -27 -15 16 -38 42
-52 57 -14 16 -28 24 -31 18z"/>
<path d="M1054 1893 c11 -13 16 -23 11 -23 -4 0 -1 -7 6 -17 11 -13 12 -17 1
-21 -10 -3 -8 -7 5 -17 22 -16 38 -8 22 11 -21 26 0 15 101 -53 64 -43 99 -72
95 -81 -2 -7 -1 -10 4 -7 5 3 21 0 35 -6 21 -10 30 -9 52 6 14 9 23 12 20 6
-4 -6 -1 -11 6 -11 7 0 18 -8 24 -18 14 -22 86 -47 109 -38 14 5 15 9 6 20 -7
8 -8 17 -3 19 4 3 13 -3 20 -14 7 -10 8 -19 4 -19 -17 0 -8 -29 10 -33 10 -3
18 -1 18 4 0 5 -5 9 -11 9 -5 0 -8 4 -4 9 10 17 -61 130 -81 131 -6 0 -17 7
-24 15 -7 8 -16 12 -21 9 -5 -3 -8 0 -7 8 3 15 -33 12 -43 -4 -4 -6 -13 -7
-20 -3 -8 3 2 -7 21 -24 31 -27 32 -30 10 -23 -14 5 -31 7 -39 4 -8 -3 -11 0
-7 6 3 6 1 14 -5 18 -7 4 -9 3 -5 -4 3 -5 0 -12 -6 -15 -9 -3 -5 -11 12 -26
l25 -21 -30 6 c-24 4 -27 3 -15 -6 13 -10 13 -11 0 -7 -8 2 -14 12 -12 21 2
10 -8 28 -22 41 -14 13 -26 31 -26 40 0 9 -4 14 -9 10 -5 -3 -13 0 -17 6 -5 8
-3 9 5 5 18 -12 9 26 -9 41 -9 6 -30 10 -48 9 -23 -2 -29 1 -21 10 6 8 5 13
-6 18 -11 4 -15 -1 -15 -17 0 -16 -3 -18 -9 -8 -5 7 -13 11 -19 7 -5 -3 -23 4
-38 16 -24 19 -26 19 -14 3 13 -17 13 -18 0 -10 -8 4 -24 15 -35 24 -20 16
-20 16 -1 -6z m427 -236 c-10 -9 -11 -8 -5 6 3 10 9 15 12 12 3 -3 0 -11 -7
-18z"/>
<path d="M2234 1858 c3 -29 6 -56 6 -59 0 -4 6 -9 14 -12 11 -5 14 7 13 59 -2
55 -5 64 -21 64 -16 0 -18 -6 -12 -52z"/>
<path d="M3725 1828 c-48 -51 -67 -65 -62 -48 6 22 5 22 -22 -6 -15 -16 -36
-34 -47 -40 -24 -14 -31 -44 -10 -44 8 0 18 5 21 10 3 6 14 10 23 10 19 0 166
129 158 138 -3 3 2 11 12 18 12 9 14 16 6 23 -7 8 -30 -10 -79 -61z"/>
<path d="M854 1881 c4 -6 16 -16 28 -22 15 -8 18 -8 14 0 -4 6 -16 16 -28 22
-15 8 -18 8 -14 0z"/>
<path d="M1763 1824 c0 -8 3 -12 5 -9 3 3 11 0 19 -7 7 -6 15 -9 17 -7 2 2 -6
12 -18 21 -18 13 -23 14 -23 2z"/>
<path d="M3016 1792 l-19 -27 24 22 c12 12 21 24 18 27 -2 2 -13 -8 -23 -22z"/>
<path d="M1110 1801 c0 -13 26 -32 41 -29 8 2 13 -4 11 -12 -2 -8 0 -12 3 -8
4 4 17 2 29 -4 26 -13 21 -8 -28 31 -39 31 -56 38 -56 22z"/>
<path d="M1095 1767 c1 -14 8 -21 19 -21 9 1 16 -4 16 -12 0 -7 12 -21 28 -30
15 -9 38 -24 52 -34 43 -29 88 -41 94 -24 3 8 13 11 23 9 10 -3 7 0 -7 6 -92
43 -116 55 -120 60 -3 4 -15 9 -28 13 -12 4 -35 18 -50 31 l-29 24 2 -22z"/>
<path d="M1800 1779 c0 -5 5 -7 10 -4 6 3 10 8 10 11 0 2 -4 4 -10 4 -5 0 -10
-5 -10 -11z"/>
<path d="M1820 1758 c0 -18 99 -110 111 -103 5 4 8 1 7 -5 -2 -6 8 -19 22 -28
l25 -16 -19 22 c-29 34 -13 36 23 3 17 -16 31 -26 31 -21 0 4 -7 13 -15 20 -8
7 -12 16 -9 21 3 5 -1 9 -9 9 -8 0 -25 9 -38 21 -13 11 -17 18 -9 14 9 -4 7 0
-3 9 -11 8 -26 12 -35 9 -9 -4 -13 -2 -9 4 4 6 -1 17 -10 24 -14 12 -16 12 -9
-1 4 -8 -1 -5 -10 8 -18 23 -44 30 -44 10z m63 -43 c-3 -9 -8 -14 -10 -11 -3
3 -2 9 2 15 9 16 15 13 8 -4z"/>
<path d="M2960 1750 c0 -5 -7 -10 -15 -10 -8 0 -15 -4 -15 -8 0 -5 -18 -28
-40 -52 -22 -24 -38 -45 -35 -48 8 -8 55 28 52 40 -1 7 3 12 9 13 12 0 50 35
38 35 -4 0 3 9 16 20 18 16 20 20 7 20 -10 0 -17 -4 -17 -10z"/>
<path d="M1120 1703 c0 -11 12 -26 35 -43 17 -13 16 -11 -4 18 -22 32 -31 39
-31 25z"/>
<path d="M1180 1666 c0 -2 8 -10 18 -17 15 -13 16 -12 3 4 -13 16 -21 21 -21
13z"/>
<path d="M1597 1653 c3 -7 9 -13 15 -13 5 0 6 -4 3 -10 -10 -16 15 -54 28 -41
7 7 14 5 25 -7 12 -14 12 -13 0 8 -8 14 -14 34 -12 45 2 18 0 17 -18 -5 -13
-15 -19 -18 -15 -8 3 10 2 20 -4 23 -5 4 -7 10 -5 14 3 4 -1 8 -8 8 -8 0 -12
-6 -9 -14z"/>
<path d="M2074 1636 c1 -19 -2 -32 -6 -30 -5 3 -8 -2 -8 -10 0 -9 7 -13 20
-11 13 2 35 -12 66 -43 26 -26 41 -38 33 -28 -12 17 -12 19 0 15 8 -3 48 -72
89 -153 53 -106 77 -145 85 -137 13 13 -120 287 -154 317 -21 17 -22 18 -16 1
4 -11 3 -16 -4 -12 -6 4 -8 14 -5 21 5 14 -34 56 -84 91 -16 11 -18 9 -16 -21z"/>
<path d="M1437 1622 c-10 -15 7 -28 68 -51 33 -12 67 -26 76 -31 10 -5 21 -4
28 3 16 16 14 27 -4 21 -8 -4 -15 -2 -15 3 0 10 -54 39 -90 48 -14 4 -32 9
-42 11 -9 3 -19 1 -21 -4z"/>
<path d="M1945 1585 c11 -22 12 -31 2 -37 -7 -4 -9 -8 -4 -9 4 -1 12 -3 17 -4
6 -1 14 -3 19 -4 5 0 8 -9 6 -18 -4 -25 13 -43 32 -36 10 4 14 2 10 -4 -4 -6
-1 -18 7 -26 8 -8 14 -16 13 -18 -1 -3 4 2 10 10 13 15 4 29 -90 134 -32 36
-35 38 -22 12z"/>
<path d="M1996 1568 c16 -18 30 -35 32 -37 1 -2 2 6 2 18 0 14 -7 25 -20 28
-11 3 -20 9 -20 14 0 5 -5 9 -12 9 -6 0 1 -15 18 -32z"/>
<path d="M3584 1552 c5 -8 -1 -15 -16 -21 -16 -7 -18 -10 -6 -10 9 -1 19 3 23
9 3 5 13 6 23 3 18 -7 17 -5 -12 17 -13 10 -17 10 -12 2z"/>
<path d="M3333 1536 c0 -17 29 -20 62 -6 l20 9 -20 0 c-11 1 -29 4 -41 7 -14
4 -21 1 -21 -10z"/>
<path d="M2110 1511 c0 -6 4 -13 10 -16 6 -3 7 1 4 9 -7 18 -14 21 -14 7z"/>
<path d="M3515 1510 c-3 -6 1 -7 9 -4 18 7 21 14 7 14 -6 0 -13 -4 -16 -10z"/>
<path d="M2074 1491 c1 -8 11 -17 23 -22 21 -7 22 -6 11 11 -8 13 -15 15 -19
8 -5 -7 -8 -6 -11 3 -4 12 -5 12 -4 0z"/>
<path d="M3284 1497 c-32 -18 -46 -35 -32 -39 11 -4 78 28 78 37 0 10 -29 11
-46 2z"/>
<path d="M3510 1483 c-19 -9 -38 -15 -42 -15 -6 2 -28 -61 -28 -80 0 -16 29
-7 33 10 4 16 5 16 6 0 1 -19 19 -22 70 -12 36 7 38 22 13 76 l-17 37 -35 -16z"/>
<path d="M2196 1477 c3 -10 9 -15 12 -12 3 3 0 11 -7 18 -10 9 -11 8 -5 -6z"/>
<path d="M3395 1470 c-3 -6 1 -7 9 -4 18 7 21 14 7 14 -6 0 -13 -4 -16 -10z"/>
<path d="M3340 1445 c-13 -14 -19 -25 -14 -25 11 0 47 40 41 46 -2 2 -14 -7
-27 -21z"/>
<path d="M3217 1433 c3 -7 6 -13 8 -13 1 0 7 6 13 13 8 10 6 13 -7 13 -11 0
-17 -6 -14 -13z"/>
<path d="M3375 1432 c-29 -16 -30 -17 -6 -20 25 -4 46 10 40 26 -3 6 -16 4
-34 -6z"/>
<path d="M2205 1430 c3 -5 8 -10 11 -10 2 0 4 5 4 10 0 6 -5 10 -11 10 -5 0
-7 -4 -4 -10z"/>
<path d="M3192 1428 c2 -7 -2 -12 -8 -11 -7 1 -20 -7 -30 -18 -16 -18 -16 -19
-1 -13 9 3 17 10 17 16 0 5 4 7 9 4 5 -3 14 1 20 8 9 10 9 16 1 21 -6 4 -9 1
-8 -7z"/>
<path d="M2150 1400 c0 -5 5 -10 11 -10 5 0 7 5 4 10 -3 6 -8 10 -11 10 -2 0
-4 -4 -4 -10z"/>
<path d="M2220 1406 c0 -2 8 -10 18 -17 15 -13 16 -12 3 4 -13 16 -21 21 -21
13z"/>
<path d="M3096 1326 c-92 -55 -235 -175 -210 -176 6 0 49 28 95 63 47 34 96
70 110 80 13 10 18 15 10 11 -9 -5 -12 -3 -7 5 4 6 11 9 16 6 9 -5 66 25 108
56 l23 18 -22 -2 c-13 -1 -68 -28 -123 -61z m114 49 c0 -2 -10 -9 -22 -15 -22
-11 -22 -10 -4 4 21 17 26 19 26 11z"/>
<path d="M3440 1320 c0 -22 3 -40 8 -40 4 0 8 -11 8 -24 3 -39 46 -117 88
-158 21 -21 41 -37 43 -35 8 9 -63 117 -77 117 -9 0 -15 10 -16 28 -1 15 -8
55 -15 90 -16 72 -39 85 -39 22z"/>
<path d="M3030 1230 c-25 -17 -44 -35 -42 -41 1 -6 -2 -8 -7 -5 -12 8 -80 -35
-81 -51 0 -7 -5 -13 -11 -13 -5 0 -7 -4 -4 -10 3 -5 2 -10 -4 -10 -5 0 -11 4
-13 9 -2 5 -10 4 -18 -2 -13 -10 -14 -18 -4 -46 l11 -35 25 40 c24 36 132 139
188 177 13 9 20 17 15 17 -6 0 -30 -14 -55 -30z"/>
<path d="M2340 1211 c0 -6 4 -13 10 -16 6 -3 7 1 4 9 -7 18 -14 21 -14 7z"/>
<path d="M2375 1151 c-3 -5 -2 -12 3 -15 5 -3 9 1 9 9 0 17 -3 19 -12 6z"/>
<path d="M2813 1145 c0 -8 4 -12 9 -9 5 3 6 10 3 15 -9 13 -12 11 -12 -6z"/>
<path d="M2735 1063 l-28 -38 34 32 c18 18 30 35 27 38 -3 3 -18 -11 -33 -32z"/>
<path d="M2730 993 c-97 -99 -120 -142 -127 -242 l-5 -76 33 44 c19 24 56 71
83 105 94 119 127 174 124 208 -2 17 -9 33 -17 36 -7 2 -48 -31 -91 -75z"/>
<path d="M2225 680 c-4 -6 3 -10 14 -10 25 0 27 6 6 13 -8 4 -17 2 -20 -3z"/>
<path d="M2361 494 c0 -11 3 -14 6 -6 3 7 2 16 -1 19 -3 4 -6 -2 -5 -13z"/>
</g>
</svg>
